<svg width="274" height="226" viewBox="0 0 274 226" xmlns="http://www.w3.org/2000/svg"><title>honeyfarms_logo</title><g fill="none" fill-rule="evenodd"><path d="M198.2 66.9c-.5 1.1-1.3 2.1-2.4 3.1-1.1 1-2.6 1.9-4.3 2.7-1.8.8-3.9 1.3-6.3 1.4-2.7.1-5.5-.1-8.3-.7-2.8-.6-6-1.1-9.5-1.3-3.1-.2-5.6-.1-7.4.3-1.8.4-3.3.8-4.3 1.2 1-.2 2.1-.4 3.4-.5 1.3-.1 2.5-.1 3.8-.1 1.3 0 2.6.2 3.9.5 1.3.3 2.5.8 3.6 1.5 2.6 1.6 4.4 3.3 5.3 5.1 1 1.8 1.4 3.6 1.2 5.4-.1 1.6-.8 3-2.1 4.1-1.2 1.1-2.6 1.6-4 1.6-.8 0-1.5-.2-2.3-.7-.7-.4-1.3-1-1.7-1.7-.4-.7-.5-1.4-.3-2.1.2-.7.8-1.4 1.8-2 .2.5.5 1.1 1 1.6.4.5 1.2.8 2.4.7.5 0 1-.2 1.6-.7.6-.4 1-1 1.3-1.8.3-.8.3-1.6.2-2.6-.2-1-.7-2-1.6-3-1.4-1.6-2.9-2.7-4.3-3-1.4-.4-2.8-.4-4-.2-1.3.3-2.4.7-3.3 1.3-.9.6-1.7 1.1-2.1 1.3-.3.2-.6.5-.9.8-.3.3-.7.6-1 1 2.7 2.3 4.7 4.6 5.8 6.8 1.2 2.2 1.7 4.3 1.5 6.3-.1 1-.3 2-.6 3s-.8 2-1.6 2.8c-.7.9-1.6 1.6-2.6 2.1s-2.3.8-3.8.8c-.5 0-1.3-.1-2.3-.3-1-.2-2-.8-3-1.7-.3 1.4-.6 2.7-1 4-.4 1.3-.8 2.4-1.2 3.3.8.7 1.6 1.2 2.4 1.5.8.3 1.5.5 2.1.5.8-.1 1.5-.2 2.1-.5.6-.2 1.2-.7 1.8-1.5.5 1 .7 2 .5 2.8-.2.9-.6 1.6-1.1 2.3-.6.7-1.2 1.2-1.9 1.6-.7.4-1.4.7-1.9.9-2.1.5-3.7.5-4.8-.1-1.1-.5-2-.9-2.7-1.2.1.4-.1.8-.4 1-.3.3-.7.5-1 .6.6.4 1.1.9 1.2 1.4.2.5.2 1.1.2 1.7 1.4.6 2.9 1 4.7 1.2 1.8.2 3.1-.1 4-.8-.5-.2-.8-.5-.9-1-.1-.5-.1-.9.1-1.1.2-.6.6-1 1.1-1.3.5-.2 1.2-.4 1.8-.6.7-.1 1.4-.3 2.1-.4.7-.1 1.2-.4 1.7-.8.6-.5 1.1-1.5 1.6-2.7.5-1.3.5-2.8-.1-4.6.6.2 1.1.8 1.5 1.7.4 1 .6 2 .5 3.2 0 1.2-.3 2.5-.9 3.8-.6 1.3-1.5 2.4-2.9 3.4-1.5 1-3 1.7-4.4 2.1-1.4.4-2.8.6-4 .6-1.3 0-2.4-.1-3.4-.4-1-.3-1.8-.5-2.5-.8-.2.7-.5 1.4-.9 2.1-.4.7-.7 1.4-1.1 2.1-.4.7-.8 1.2-1.1 1.7-.4.5-.6.9-.8 1.1-.2.4-.4.9-.6 1.3-.2.5-.4.9-.6 1.4-.2.4-.3.8-.5 1.1-.1.3-.3.5-.3.5-.1 0-.3-.2-.4-.5-.1-.3-.3-.7-.5-1.1-.2-.4-.4-.9-.6-1.4-.2-.5-.4-.9-.6-1.3-.1-.2-.4-.6-.8-1.1-.4-.5-.7-1.1-1.1-1.7-.4-.7-.8-1.3-1.1-2.1-.4-.7-.6-1.4-.8-2.1-.7.3-1.6.5-2.6.8-1 .3-2.1.4-3.4.4-1.3 0-2.6-.2-4-.6-1.4-.4-2.9-1.1-4.4-2.1-1.4-1-2.3-2.1-2.9-3.4-.6-1.3-.9-2.6-.9-3.8 0-1.2.1-2.3.5-3.2.4-1 .9-1.5 1.5-1.7-.6 1.8-.6 3.3-.1 4.6.5 1.3 1 2.2 1.6 2.7.4.4 1 .7 1.7.8.7.1 1.4.3 2.1.4.7.1 1.3.3 1.8.6.5.2.9.7 1.1 1.3.1.3.2.7.1 1.1-.1.5-.4.8-.9 1 .9.8 2.3 1 4 .8 1.8-.2 3.3-.6 4.7-1.2-.1-.6 0-1.2.2-1.7s.6-1 1.2-1.4c-.4-.1-.7-.3-1-.6-.3-.3-.5-.6-.4-1-.7.3-1.6.7-2.7 1.2s-2.7.5-4.8.1c-.6-.1-1.2-.4-1.9-.9-.7-.4-1.4-1-1.9-1.6-.6-.7-1-1.4-1.1-2.3-.2-.9 0-1.8.5-2.8.6.8 1.2 1.3 1.8 1.5.6.2 1.3.4 2.1.5.6 0 1.3-.2 2.1-.5s1.6-.8 2.4-1.5c-.4-.9-.8-2-1.2-3.3-.4-1.3-.7-2.6-1-4-.9 1-1.9 1.5-3 1.7-1 .2-1.8.3-2.3.3-1.5 0-2.8-.3-3.8-.8s-1.9-1.2-2.6-2.1c-.7-.9-1.2-1.8-1.6-2.8-.3-1-.5-2-.6-3-.1-2 .4-4.1 1.5-6.3 1.2-2.2 3.1-4.5 5.8-6.8-.4-.3-.7-.7-1-1-.3-.3-.6-.6-.9-.8-.4-.3-1.1-.7-2.1-1.3-1-.6-2.1-1.1-3.3-1.3-1.3-.3-2.6-.2-4 .2s-2.9 1.4-4.3 3c-.9 1-1.4 2-1.6 3-.2 1-.1 1.8.2 2.6.3.8.7 1.4 1.2 1.8.5.4 1.1.7 1.7.7 1.2.1 1.9-.2 2.4-.7.4-.5.8-1.1 1-1.6 1 .6 1.6 1.3 1.8 2 .2.7.1 1.5-.3 2.1-.4.7-1 1.2-1.7 1.7-.7.4-1.5.7-2.3.7-1.4 0-2.8-.5-4-1.6-1.2-1.1-1.9-2.5-2.1-4.1-.1-1.8.3-3.6 1.2-5.4 1-1.8 2.8-3.5 5.5-5.1 1.1-.7 2.2-1.2 3.5-1.5 1.3-.3 2.5-.5 3.8-.5 1.3 0 2.6 0 3.8.1 1.3.1 2.4.3 3.4.5-1-.4-2.4-.8-4.3-1.2-1.8-.4-4.3-.5-7.4-.3-3.5.3-6.7.7-9.5 1.3-2.8.6-5.6.9-8.3.7-2.4-.1-4.6-.6-6.3-1.4-1.8-.8-3.2-1.7-4.3-2.7-1.1-1-1.9-2.1-2.4-3.1-.5-1.1-.8-2-.8-2.8.1-1.1.4-2.1.9-3.1s1.5-1.5 2.8-1.6c.6-.1 1.1.1 1.6.5s.7.9.7 1.3c.1.5-.1.9-.4 1.4-.4.4-.9.7-1.6.7-.6 0-1-.1-1.1-.3-.2-.2-.4-.5-.6-.8-.4.3-.6.9-.6 1.8-.1.9.2 1.9.7 2.9.5 1 1.4 2 2.7 2.9 1.3.9 3 1.4 5.3 1.5.9.1 1.7 0 2.3-.2.6-.2 1.2-.5 1.7-.8.5-.3 1.1-.6 1.6-.9.5-.3 1.1-.5 1.7-.6.6-.1 1.2 0 1.7.1s.9.3 1.3.4c.4.1.9.2 1.3.2s.9-.3 1.5-.8c-.1 1-.3 1.8-.5 2.3-.3.5-.6.9-1.1 1.3.9-.1 1.9-.3 3.2-.6 1.3-.2 2.6-.5 4-.7 1.4-.2 2.9-.4 4.3-.5 1.4-.1 2.8-.1 4 .1-1.4-.8-2.3-1.7-2.8-2.6-.5-.9-.8-1.7-.8-2.2 0-.4.2-.8.6-1.2.4-.4.9-.6 1.5-.6s1 .2 1.3.5c.3.3.4.7.4 1.1 0 .5-.2.9-.6 1.1-.4.2-.8.3-1.1.3.4.8.9 1.4 1.6 1.8.7.4 1.4.8 2.2 1.1.8.3 1.6.6 2.5.8.9.2 1.7.4 2.5.6 1.7.5 3.7 1.3 6 2.4-1.3-1.3-2.5-2.7-3.5-4.1-1-1.4-1.6-2.4-1.8-2.9-.4-1.1-.5-2.1-.5-2.9 0-.8.1-1.5.3-2.1-.6.5-1.3.7-2.2.6-.9-.1-1.6-.3-2.2-.6-.4-.2-.8-.5-1.2-1-.4-.5-.8-1-1.1-1.6-.4-.6-.7-1.1-.9-1.7-.3-.5-.5-.9-.6-1.1-.4-.5-.7-.9-1-1-.3-.1-.8-.1-1.6-.1.6-.9 1.6-1.4 3-1.4 1.3-.1 2.4 0 3.2.2 1.4.3 2.3.9 2.9 1.6.6.7 1.2 1.3 1.8 1.7-.2-1.2.1-2.4 1-3.5s1.7-2 2.5-2.7c.9-.8 2.2-1.4 3.9-1.9 1.7-.4 3.2-.8 4.8-1.1-.8-1-1.5-2-2.2-3-.6-1.1-1-2.1-1.2-3-.1-1.9 0-3.4.4-4.4.4-1 1-1.5 1.8-1.5.9 0 1.5.4 1.6 1.3 0 .5-.3.9-.8 1.2-.5.3-1 .3-1.4-.1-.5.7-.7 1.5-.6 2.3.1.9.4 1.7.9 2.5s1.1 1.5 1.8 2.2c.7.7 1.4 1.2 2.2 1.6.6-.4 1.3-1 2.1-1.6.7-.7 1.3-1.4 1.8-2.2.5-.8.8-1.6.9-2.5.1-.9-.1-1.6-.6-2.3-.4.3-.9.4-1.4.1-.5-.3-.8-.7-.8-1.2.1-.9.7-1.3 1.6-1.3 1.9 0 2.6 2 2.3 5.9-.1 1-.5 2-1.2 3-.6 1.1-1.4 2.1-2.2 3 1.5.3 3.1.7 4.8 1.1 1.7.4 3 1 3.9 1.9.8.7 1.6 1.6 2.5 2.7.9 1.1 1.2 2.3 1 3.5.6-.4 1.3-1 1.8-1.7.6-.7 1.5-1.2 2.9-1.6.4-.1.8-.1 1.4-.2.6-.1 1.2-.1 1.7 0 .6.1 1.1.2 1.7.4.6.2 1 .5 1.3 1-.7-.1-1.2-.1-1.6.1-.3.1-.7.4-1 1-.1.2-.3.6-.6 1.1-.3.5-.6 1.1-.9 1.7-.4.6-.7 1.1-1.1 1.6-.4.5-.8.8-1.2 1-.6.3-1.3.5-2.2.6-.9.1-1.6-.1-2.2-.6.1.5.3 1.2.3 2.1.1.8-.1 1.8-.4 2.9-.2.5-.8 1.5-1.9 2.9-1 1.4-2.2 2.8-3.5 4.1 2.3-1.1 4.3-1.9 6-2.4.7-.2 1.5-.4 2.4-.6.9-.2 1.7-.5 2.5-.8.8-.3 1.5-.7 2.2-1.1.7-.4 1.2-1 1.6-1.8-.4 0-.7-.1-1.1-.3-.4-.2-.6-.5-.6-1.1 0-.4.1-.8.4-1.1.3-.3.7-.5 1.3-.5.6 0 1.1.2 1.5.6.4.4.6.8.6 1.2 0 .5-.3 1.3-.8 2.2-.5.9-1.4 1.8-2.8 2.6 1.2-.1 2.5-.2 3.9-.1 1.5.1 2.9.3 4.4.5 1.4.2 2.8.4 4 .7 1.3.2 2.3.4 3.2.6-.4-.3-.8-.8-1.1-1.3-.3-.5-.5-1.3-.5-2.3.6.5 1.1.7 1.5.8.4 0 .9 0 1.3-.2.4-.1.9-.3 1.3-.4.5-.1 1-.2 1.7-.1.6.1 1.2.3 1.7.6s1 .6 1.6.9c.5.3 1.1.6 1.7.8.6.2 1.4.3 2.3.2 2.3-.1 4.1-.7 5.3-1.5 1.3-.9 2.2-1.9 2.7-2.9s.8-2 .7-2.9c-.1-.9-.3-1.5-.6-1.8-.2.3-.4.6-.6.8-.2.2-.6.3-1.1.3-.7 0-1.3-.2-1.6-.7-.4-.4-.5-.9-.4-1.4 0-.5.2-.9.7-1.3.5-.4 1-.6 1.6-.5 1.3.1 2.2.7 2.8 1.6.5 1 .8 2 .9 3.1-.6.8-.8 1.8-1.3 2.8zm-72.3 23.6c.7.3 1.4.7 1.9 1.3 1-2.4 2.4-4.6 4.3-6.6 1.8-2 3.6-3.6 5.2-4.8-1.5-1-3.1-1.8-4.6-2.4-1.6-.7-3.1-.9-4.4-.8.6.9.7 1.8.4 2.7-.3.9-1 1.6-1.9 2.1-.9.4-1.7.5-2.5.4-.8-.2-1.5-.5-2.3-1.1-1.7 1.6-2.9 3.2-3.6 4.8-.7 1.6-1.2 2.9-1.3 3.9-.1.8 0 1.5.1 2.3.1.8.4 1.4.8 2 .4.5.8 1 1.4 1.3.6.3 1.3.5 2.1.4-.6-.8-1-1.5-1.1-2.2-.1-.7.1-1.3.4-1.9.3-.5.8-1 1.3-1.3.6-.3 1.2-.5 1.8-.6.5.2 1.2.3 2 .5zm0-25.8c.1 1 .4 2 .9 3s1.1 2 1.9 3c.8 1 1.6 1.8 2.5 2.6 1.2-1 2.4-2.1 3.5-3.4 1.1-1.3 2.1-2.9 2.9-4.8.6-1.6.7-3.2.2-4.9-.5-1.7-1.5-2.8-2.8-3.3 1.2-.5 2.2-1.1 2.8-1.7.6-.6 1.1-1.4 1.3-2.5.1 1.1.5 1.9 1.2 2.5.6.6 1.6 1.1 2.8 1.7-1.3.5-2.2 1.7-2.8 3.3-.5 1.7-.5 3.3.2 4.9.8 1.9 1.7 3.5 2.9 4.8 1.1 1.3 2.3 2.4 3.5 3.4.9-.8 1.7-1.6 2.5-2.6s1.4-2 1.9-3 .8-2 .9-3c.1-1-.1-1.8-.7-2.5-.1.3-.2.7-.3 1.1 0 .4-.4.7-1 .8-.9.2-1.6.4-2.2.5-.6.1-1.3.1-2.2-.1-1.1-.1-1.9 0-2.4.3s-.8.7-1 1c-.2-.1-.4-.3-.6-.8-.2-.4-.2-1-.2-1.6.1-.6.3-1.3.7-2 .4-.7 1-1.4 1.9-2 .9-.5 1.7-.9 2.4-1 .7-.1 1.3-.1 1.9-.1.5 0 1 .1 1.3.3.4.1.6.1.8 0-1-.3-2.1-.7-3.1-1.3-1.1-.6-2.1-1.2-3.1-1.9s-1.8-1.4-2.6-2c-.8-.7-1.3-1.2-1.7-1.6l-.5-.5-.5-.5c-.2.1-.4.3-.6.5l-.5.5c-.4.4-.9.9-1.7 1.6-.8.7-1.6 1.3-2.6 2s-2 1.3-3.1 1.9c-1.1.6-2.1 1-3.1 1.3.1.1.4.1.8 0s.8-.2 1.3-.3c.5 0 1.2 0 1.9.1s1.5.4 2.4 1c.9.6 1.5 1.3 1.9 2 .4.7.6 1.4.7 2 .1.6 0 1.1-.2 1.6-.2.4-.4.7-.6.8-.1-.3-.5-.7-1-1-.5-.3-1.3-.4-2.4-.3-.9.1-1.6.2-2.2.1-.6-.1-1.3-.3-2.2-.5-.6-.1-1-.4-1-.8s-.1-.8-.3-1.1c-.6.8-.8 1.6-.7 2.5zM148.7 98c0-2.1-.2-4-.7-5.5-.5-1.5-1.1-2.8-1.9-3.9-.8-1-1.3-1.9-1.8-2.5-.4-.5-1-1.2-2-2.1-1-.8-2.1-1.7-3.3-2.7-1.3 1-2.4 1.9-3.4 2.7-1 .8-1.6 1.5-2 2.1-.4.6-1 1.4-1.8 2.5-.8 1-1.4 2.3-1.9 3.9-.5 1.5-.7 3.4-.7 5.5s.7 4.6 2 7.3c.3-.5.6-1.2.9-2.1l.9-2.4c.3-.8.7-1.4 1.2-1.9s1-.8 1.7-.8c.6 0 1 .1 1.3.4.3.3.7.8 1 1.6.4-.3.9-.3 1.4 0 .4-.8.7-1.4 1-1.6.3-.3.8-.4 1.3-.4.6 0 1.2.3 1.7.8s.9 1.1 1.2 1.9c.3.8.6 1.5.9 2.4.3.8.6 1.5.9 2.1 1.4-2.7 2-5.1 2.1-7.3zM139 79c.8-.5 1.6-1.1 2.4-1.6.8-.5 1.5-1.1 2.1-1.5.7-.5 1.4-1.1 2.1-1.5-1.4-1-2.6-2.3-3.8-3.8-1.2-1.5-2.1-3.3-2.7-5.5-.7 2.2-1.7 4-2.8 5.5-1.2 1.5-2.4 2.7-3.8 3.8.6.5 1.3 1 2.1 1.5.6.5 1.3 1 2.1 1.5s1.6 1.1 2.4 1.6h-.1c.1 0 .1 0 .1.1 0 0 0 .1.1.1l.1-.1h-.3V79zm3.6 9.6c-1-.9-2.2-1.4-3.6-1.4s-2.7.5-3.7 1.4c-1 .9-1.5 2.1-1.5 3.4 0 1.4.5 2.5 1.5 3.4 1 .9 2.2 1.4 3.7 1.4 1.4 0 2.6-.5 3.6-1.4 1-.9 1.5-2.1 1.5-3.4 0-1.3-.5-2.4-1.5-3.4zm-1 21.2c.7-.7 1-1.5 1-2.4 0-1-.3-1.8-1-2.5s-1.5-1-2.5-1-1.9.3-2.6 1c-.7.7-1.1 1.5-1.1 2.5s.4 1.8 1.1 2.4c.7.7 1.6 1 2.6 1 .9 0 1.8-.3 2.5-1zm12.1-27.3c-.8.2-1.6.1-2.5-.4-.9-.5-1.6-1.2-1.9-2.1-.3-.9-.2-1.8.4-2.7-1.4-.1-2.8.1-4.4.8-1.6.7-3.1 1.5-4.6 2.4 1.7 1.2 3.4 2.8 5.3 4.8s3.3 4.2 4.3 6.6c.5-.6 1.1-1.1 1.8-1.3.7-.3 1.4-.4 2.1-.3.6.1 1.3.3 1.8.6.6.3 1 .7 1.3 1.3.3.5.4 1.2.4 1.9-.1.7-.4 1.4-1.1 2.2.8.1 1.5-.1 2.1-.4.6-.3 1-.8 1.4-1.3.4-.5.6-1.2.8-2 .1-.8.2-1.5.1-2.3-.1-1-.6-2.3-1.3-3.9-.7-1.6-2-3.3-3.6-4.8-.8.3-1.6.7-2.4.9z" fill="#4F87A0"/><g fill="#4F87A0"><path d="M138.1 6.9c.6 5 .8 7.6.8 7.7v10.3c0 .6.1 1 .3 1.4.2.4.5.6.7.6.3 0 .6-.2 1-.5.3-.4.5-.7.5-1.1 0-.4-.1-1.8-.4-4.2-.3-2.4-.4-4.6-.4-6.6 0-4.2.2-6.8.5-7.7.2-.6.5-1.2 1.1-1.8.4-.5.6-.9.6-1.2 0-.8-.4-1.7-1.2-2.5-.8-.8-1.6-1.2-2.4-1.2-.8 0-1.5.4-2.2 1.2-.7.8-1 1.7-1 2.7 0 .9.7 1.8 2.1 2.9zM127.6 25.3c.3 1.2.8 1.8 1.4 1.8.6 0 .9-.4.9-1.1 0-1.5-.9-3.8-2.6-6.7-.9-1.5-1.8-3-2.7-4.4-.7-1.2-1.1-2-1.1-2.5 0-.1 0-.2.1-.4 0-.2.1-.3.1-.5 0-.9-.5-1.3-1.6-1.3s-1.9.3-2.7 1c-.7.7-1.1 1.5-1.1 2.6 0 .8.3 1.6.8 2.4.5.8 1.1 1.2 1.6 1.2.3 0 .7-.1 1.1-.2.5-.1.8-.2 1-.2.2 0 .5.4 1.2 1.2 1.6 2.1 2.6 3.4 2.8 4 .3 1 .5 2.1.8 3.1zM143.8 27c.8 0 1.3-.2 1.5-.7.1-.3.2-1 .2-2.1v-1c0-.7.4-2.3 1.2-4.7 1.1-3.5 2-6.5 2.6-8.8 2.2-.1 3.3-1.7 3.3-4.8 0-1.8-1-2.7-3.1-2.7-2.4 0-3.6 1.2-3.6 3.5 0 .3.2.9.5 1.6.4.7.5 1.2.5 1.4 0 .2-.2 1.1-.7 2.8-.7 2.2-1.2 4.4-1.6 6.4-1.2 5.7-1.9 8.4-1.9 8.2 0 .5.4.9 1.1.9zM128.7 9.4c.6.2.9.6 1 1 .1.4.1.8.2 1.2.1.2.3.6.7 1.1.4.5.6 1 .7 1.4.5 1.7 1.1 4.2 1.7 7.7.5 2.5.7 3.9.8 4.1.2.8.7 1.3 1.3 1.3.9 0 1.3-.3 1.3-.9 0-.7-1.6-7.1-4.9-19.2.1-.3.3-.8.6-1.3.2-.4.4-.7.4-.8 0-.7-.4-1.3-1.1-1.9-.7-.6-1.6-.8-2.5-.8-.8 0-1.5.4-2.1 1.3-.6.8-1 1.9-1 3.2 0 .8.2 1.4.6 1.7.1 0 .9.4 2.3.9zM159.6 9.9c-.7-.7-1.4-1.1-2.3-1.1-2.7 0-4 .6-4 1.9 0 .2.1.7.4 1.3.3.6.4 1.1.4 1.4 0 .2-.3.8-1 1.9-.8 1.4-1.5 2.7-2 3.9-.9 2-1.5 4.2-1.9 6.6.2.7.4 1 .9 1 .6 0 1.6-2 3-5.9 1.5-3.9 2.5-5.9 3.2-5.9.2 0 .4.1.8.2s.7.2.9.2c.7 0 1.3-.3 1.8-.9.5-.6.7-1.3.7-2.3.2-.7-.2-1.5-.9-2.3zM153.2 28.3l-1.6.2c-2.8.4-4.3.6-4.5.6-3.4 0-6.7 0-9.7-.1-2.1-.1-4.1-.1-5.9-.2-1.6-.1-2.4-.1-2.3-.1h-.5c-1.3 0-2.1.1-2.5.3-.6.3-.8 1-.8 2.1 0 1.4.9 2.1 2.6 2.1 2.3 0 5.1 0 8.5-.1 3.4-.1 5.6-.1 6.7-.1.5 0 1.1 0 1.9.1.8 0 1.3.1 1.5.1 3.8 0 5.8-.1 6-.3.2-.2.5-.7.7-1.5.3-.8.4-1.5.4-2.3 0-.5-.2-.7-.5-.8z"/></g><g fill="#E28432"><path d="M90.4 174.7l.2 3.2h-.5l-.1-.5c-.2-.7-.5-1.2-.8-1.4-.3-.3-1-.4-2-.4h-3.1v10.2c0 2.4.3 2.8 2.3 2.8v.5h-6.5v-.5c2 0 2.3-.4 2.3-2.8v-10.2H79c-1 0-1.7.1-2 .4-.3.2-.6.7-.8 1.4l-.1.5h-.5l.2-3.2h14.6zM102.9 189.1h-5.3v-.5c1.6 0 1.7-.3 1.7-2.8v-1.4c0-1.6-.6-2.6-1.8-2.6-.6 0-1.2.2-1.8.7-.6.5-.8 1-.8 1.7v1.6c0 2.5.2 2.8 1.5 2.8v.5h-5.1v-.5c1.7 0 1.9-.4 1.9-2.8v-7.6c0-2.4-.2-2.8-1.9-2.8v-.5l3.6-.6v8.1c.8-1 1.9-1.7 3.1-1.7 2.1 0 3 1.4 3 3.6v1.5c0 2.4.3 2.8 1.9 2.8v.5zM106.4 184.5v.8c0 1.9 1.1 3.2 3.2 3.2.8 0 2-.5 2.6-1.1l.4.5c-.9.9-2.3 1.6-3.7 1.6-2.6 0-4.4-2-4.4-4.4 0-2.5 2.2-4.4 4.4-4.4.9 0 1.7.3 2.4.9.7.6 1 1.3 1 2.1 0 .3 0 .6-.1.8h-5.8zm4.2-.9c0-.1.1-.3.1-.5 0-.8-.6-1.5-1.8-1.5-1 0-1.9.8-2.3 1.9h4v.1zM123.2 189.5c-.6 0-1.1-.2-1.7-.5-.3-.2-.5-.2-.6-.2-.2 0-.3.3-.3.8h-.5V186h.5c0 .6.2 1.2.7 1.8.5.6 1.1.9 1.9.9.8 0 1.3-.6 1.3-1.2s-.5-1-1.3-1.5l-1.3-.7c-1.1-.6-1.6-1.5-1.6-2.4 0-1.2 1.1-2.2 2.4-2.2.7 0 1.2.2 1.7.4.2.1.3.1.3.1.1 0 .2-.2.2-.6h.5v2.8h-.5c0-1.1-.8-2-1.9-2-.8 0-1.2.3-1.2 1 0 .6.3.9 1.5 1.5l1.2.6c1.1.6 1.7 1.4 1.7 2.3-.2 1.6-1.4 2.7-3 2.7zM133.4 184l-2.1 5.5h-.5L128 183c-.5-1.1-.9-1.4-1.6-1.4v-.5h4.3v.5c-.7 0-1.1.2-1.1.7 0 .2.1.4.2.7l1.6 3.7 1.9-5.6h.5l2.4 5.6 1.3-3.7c.1-.3.2-.6.2-.7 0-.5-.3-.7-.9-.7v-.5h3.4v.5c-.8 0-1.3.4-1.7 1.4l-2.4 6.5h-.5l-2.2-5.5zM143.1 184.5v.8c0 1.9 1.1 3.2 3.2 3.2.8 0 2-.5 2.6-1.1l.4.5c-.9.9-2.3 1.6-3.7 1.6-2.6 0-4.4-2-4.4-4.4 0-2.5 2.2-4.4 4.4-4.4.9 0 1.7.3 2.4.9.7.6 1 1.3 1 2.1 0 .3 0 .6-.1.8h-5.8zm4.1-.9c0-.1.1-.3.1-.5 0-.8-.6-1.5-1.8-1.5-1 0-1.9.8-2.3 1.9h4v.1zM153.2 184.5v.8c0 1.9 1.1 3.2 3.2 3.2.8 0 2-.5 2.6-1.1l.4.5c-.9.9-2.3 1.6-3.7 1.6-2.6 0-4.4-2-4.4-4.4 0-2.5 2.2-4.4 4.4-4.4.9 0 1.7.3 2.4.9.7.6 1 1.3 1 2.1 0 .3 0 .6-.1.8h-5.8zm4.1-.9c0-.1.1-.3.1-.5 0-.8-.6-1.5-1.8-1.5-1 0-1.9.8-2.3 1.9h4v.1zM162.2 181.9H161v-.6c1.4-.3 1.9-1.2 2.1-2.9h.8v2.6h2.1v.8h-2.1v4.8c0 1.2.4 1.8 1.1 1.8.5 0 1-.3 1.6-.8l.4.4c-.7.8-1.7 1.4-2.5 1.4-1.4 0-2.2-.9-2.2-2.7v-4.8h-.1zM178.9 189.1h-5.5v-.5c1.7 0 1.9-.4 1.9-2.8v-7.6c0-2.4-.2-2.8-1.9-2.8v-.5l3.6-.6v11.5c0 2.4.3 2.8 1.9 2.8v.5zM185.8 189.1h-5.5v-.5c1.6 0 1.9-.4 1.9-2.8v-1.2c0-2.4-.3-2.8-1.9-2.8v-.5l3.6-.6v5.1c0 2.4.3 2.8 1.9 2.8v.5zm-2.8-10.8c-.6 0-1.1-.5-1.1-1.1 0-.6.5-1.1 1.1-1.1.6 0 1.1.5 1.1 1.1-.1.7-.5 1.1-1.1 1.1zM190.7 181.9v3.8c0 2.4.3 2.8 1.9 2.8v.5h-5.5v-.5c1.6 0 1.9-.4 1.9-2.8v-3.8h-2v-.8h2v-2.3c0-3.2 1.9-4.5 3.9-4.5 1.5 0 2.4.9 2.4 1.8 0 .6-.3.9-.8.9s-.6-.3-.9-.8c-.3-.7-.5-1-1.2-1-1.2 0-1.8 1-1.8 3.7v2.3h2.4v.8h-2.3v-.1zM196.8 184.5v.8c0 1.9 1.1 3.2 3.2 3.2.8 0 2-.5 2.6-1.1l.4.5c-.9.9-2.3 1.6-3.7 1.6-2.6 0-4.4-2-4.4-4.4 0-2.5 2.2-4.4 4.4-4.4.9 0 1.7.3 2.4.9.7.6 1 1.3 1 2.1 0 .3 0 .6-.1.8h-5.8zm4.1-.9c0-.1.1-.3.1-.5 0-.8-.6-1.5-1.8-1.5-1 0-1.9.8-2.3 1.9h4v.1z"/></g><g fill="#4F87A0"><path d="M1 164.7H.2v-8.9H1s.1 7.2 7.4 7.2c2.9 0 5-1.9 5-4.4 0-1.9-1.9-3.5-4.6-4.9l-3.9-2c-2.3-1.2-4.5-3.6-4.5-6.6 0-3.3 2.8-6 6.7-6 2.4 0 3.7.8 4.9 1.6.5-.4 1-1 1.2-1.9h.8v8.9h-.8c-.3-3.2-1.5-7-6.2-7-2.3 0-3.9 1.6-3.9 3.6 0 2.1 1.4 3.2 4.9 5l3.9 2c3.1 1.6 4.2 3.9 4.2 6.1 0 4.4-3.5 7.2-7.6 7.2-3.1 0-5-1.6-6.3-1.9-.5.5-1 1.1-1.2 2zM33.8 163.2v.8h-9.2v-.8c2.7 0 3.2-.7 3.2-4.7v-6.4c0-4-.5-4.7-3.2-4.7v-.8h8.3c4.1 0 6.4 2.1 6.4 5 0 2.8-2.3 4.9-6.4 4.9h-2.3v2c0 4.1.5 4.7 3.2 4.7zm-.9-15.1h-2.3v7h2.3c2.3 0 3.3-1.6 3.3-3.5s-1-3.5-3.3-3.5zM59.2 159.5c1.6 1.9 3.5 3.5 5.4 3.7v.8h-5.2l-5.5-7.5h-1.1v2c0 4 .5 4.7 3.2 4.7v.8h-9.2v-.8c2.7 0 3.2-.7 3.2-4.7v-6.4c0-4-.5-4.7-3.2-4.7v-.8h8.3c4.1 0 6.4 2.1 6.4 5 0 2.5-1.9 4.5-4.9 4.9l2.6 3zm-4-11.4h-2.3v7h2.3c2.3 0 3.3-1.6 3.3-3.5s-1.1-3.5-3.3-3.5zM71.2 164v-.8c2.7 0 3.2-.7 3.2-4.7v-6.4c0-4-.5-4.7-3.2-4.7v-.8h9.2v.8c-2.7 0-3.2.6-3.2 4.7v6.4c0 4 .5 4.7 3.2 4.7v.8h-9.2zM89 147.4v-.8h4.9l10.7 12.7v-7.2c0-4-.5-4.7-3.2-4.7v-.8h7.8v.8c-2.7 0-3.2.6-3.2 4.7v12.6h-.8l-11.7-14v7.9c0 4 .5 4.7 3.2 4.7v.8H89v-.8c2.7 0 3.2-.7 3.2-4.7v-6.4c0-4.1-.5-4.8-3.2-4.8zM127.4 164.7c-5 0-9.1-4.2-9.1-9.4 0-5.1 4.1-9.4 9.1-9.4 1.9 0 4.1 1.1 5.3 2.7.3-.3.6-1.3.7-2h.8v7h-.8c-.8-3.7-2.9-6.1-6-6.1-4.5 0-5.9 4.5-5.9 7.8 0 3.4 1.4 7.8 5.9 7.8 2 0 5.1-1.2 5.1-3.4 0-1.6-1.5-2.5-3.5-2.5v-.8h8.9v.8c-2.7 0-3.2.7-3.2 4.7v1.2c-2.5.1-5 1.6-7.3 1.6zM151.8 158.5c0 4 .5 4.7 3.8 4.7v.8h-10.9v-.8c3.3 0 3.8-.7 3.8-4.7v-13.1c0-4-.5-4.7-3.8-4.7v-.8h10.9v.8c-3.3 0-3.8.6-3.8 4.7v5.1h13.7v-5.1c0-4-.5-4.7-3.9-4.7v-.8h10.9v.8c-3.4 0-3.9.6-3.9 4.7v13.1c0 4 .5 4.7 3.9 4.7v.8h-10.9v-.8c3.3 0 3.9-.7 3.9-4.7V152h-13.7v6.5zM191 164.7c-5.4 0-9.8-4.2-9.8-9.4 0-5.1 4.4-9.4 9.8-9.4s9.8 4.3 9.8 9.4c0 5.2-4.4 9.4-9.8 9.4zm0-17.2c-4.7 0-6.5 4.4-6.5 7.8 0 3.5 1.8 7.8 6.5 7.8s6.5-4.3 6.5-7.8-1.8-7.8-6.5-7.8zM219.9 162.9c2.8 0 4.9-1.6 4.9-5.1v-5.7c0-4-.5-4.7-3.2-4.7v-.8h8.2v.8c-2.7 0-3.2.6-3.2 4.7v5.4c0 4.7-3.3 7.2-7.2 7.2-3.9 0-7.2-2.5-7.2-7.2v-5.4c0-4-.5-4.7-3.2-4.7v-.8h9.2v.8c-2.7 0-3.2.6-3.2 4.7v5.7c.1 3.5 2.1 5.1 4.9 5.1zM244.3 164.7c-2.1 0-3.8-1-4.5-1.5-.2.3-.6.8-.8 1.5h-.7v-6.9h.8c.3 3.4 2.5 5.4 5.5 5.4 1.7 0 3.1-1 3.1-2.7 0-1.4-1.1-2.5-3.3-3.6l-2.7-1.4c-1.9-1-3.3-2.7-3.3-4.9 0-2.5 2.1-4.6 5-4.6 1.7 0 3 .6 3.8 1.2.2-.2.5-.6.6-1.2h.8v6.8h-.8c-.2-2.4-1.3-5.3-4.2-5.3-1.6 0-2.9.8-2.9 2.3 0 1.4 1 2.2 3.5 3.5l2.7 1.4c2.3 1.2 3.1 3 3.1 4.5 0 3.3-2.6 5.5-5.7 5.5zM272.9 160l.2-.8h.8l-.3 4.9h-15v-.8c2.7 0 3.2-.7 3.2-4.7v-6.4c0-4-.5-4.7-3.2-4.7v-.8H272.7l.3 4.8h-.8l-.2-.8c-.4-1.9-1-2.6-4.6-2.6h-2.7v6h.2c4 0 4.3-.5 4.3-3.2h.8v7.8h-.8c0-2.7-.3-3.2-4.3-3.2h-.2v2.3c0 4 .5 4.7 3.2 4.7h.5c3.5.1 4-.6 4.5-2.5z"/></g><g fill="#4F87A0"><path d="M9.8 219.7c0 4 .5 4.7 3.8 4.7v.8H2.7v-.8c3.3 0 3.8-.7 3.8-4.7v-13.1c0-4-.5-4.7-3.8-4.7v-.8h10.9v.8c-3.3 0-3.8.6-3.8 4.7v5.1h13.7v-5.1c0-4-.5-4.7-3.9-4.7v-.8h10.9v.8c-3.4 0-3.9.6-3.9 4.7v13.1c0 4 .5 4.7 3.9 4.7v.8H19.6v-.8c3.3 0 3.9-.7 3.9-4.7v-6.5H9.8v6.5zM49 226c-5.4 0-9.8-4.2-9.8-9.4 0-5.1 4.4-9.4 9.8-9.4s9.8 4.3 9.8 9.4c0 5.1-4.4 9.4-9.8 9.4zm0-17.3c-4.7 0-6.5 4.4-6.5 7.8 0 3.5 1.8 7.8 6.5 7.8s6.5-4.3 6.5-7.8c0-3.4-1.8-7.8-6.5-7.8zM67.8 208.6v-.8h4.9l10.7 12.7v-7.2c0-4-.5-4.7-3.2-4.7v-.8H88v.8c-2.7 0-3.2.6-3.2 4.7v12.6H84l-11.7-14v7.9c0 4 .5 4.7 3.2 4.7v.8h-7.8v-.8c2.7 0 3.2-.7 3.2-4.7v-6.4c0-4.1-.4-4.8-3.1-4.8zM111 221.2l.2-.8h.8l-.3 4.9h-15v-.8c2.7 0 3.2-.7 3.2-4.7v-6.4c0-4-.5-4.7-3.2-4.7v-.8H110.8l.3 4.8h-.8l-.2-.8c-.4-1.9-1-2.6-4.6-2.6h-2.7v6h.2c4 0 4.3-.5 4.3-3.2h.8v7.8h-.8c0-2.7-.3-3.2-4.3-3.2h-.2v2.3c0 4 .5 4.7 3.2 4.7h.5c3.5.1 4-.6 4.5-2.5zM130.1 219.8c0 4 .5 4.7 3.2 4.7v.8H124v-.8c2.7 0 3.2-.7 3.2-4.7v-1.6l-4-5.9c-1.9-2.8-2.6-3.5-4.7-3.5v-.8h8.9v.8c-2.5 0-2.8.7-1.2 3.1l3.1 4.6 3.1-4.6c1.6-2.5 1.6-3.1-1.1-3.1v-.8h7.6v.8c-2.2 0-3.1.9-4.9 3.5l-4 5.9v1.6h.1zM151.5 211.7h2c4 0 4.7-.5 4.7-3.9h.8v9.2h-.8c0-3.4-.6-3.9-4.7-3.9h-2v6.5c0 4 .5 4.7 3.8 4.7v.8h-10.9v-.8c3.3 0 3.8-.7 3.8-4.7v-13.1c0-4-.5-4.7-3.8-4.7v-.8h19l.3 5.3h-.7l-.2-.8c-.5-2.1-1-3-4.6-3h-6.6v9.2h-.1zM174.9 221.4c-1 2.4-1 3.1 2.2 3.1v.8h-7.6v-.8c2.5 0 2.9-.5 4.1-3.5l5.9-13.8h.6L186 221c1.3 3 1.8 3.5 3.9 3.5v.8h-9v-.8c2.9 0 3.2-.7 2.2-3.1l-.8-1.9h-6.6l-.8 1.9zm4.1-9.5l-2.7 6.2h5.3l-2.6-6.2zM209.1 220.7c1.6 1.9 3.5 3.5 5.4 3.7v.8h-5.2l-5.5-7.5h-1.1v2c0 4 .5 4.7 3.2 4.7v.8h-9.2v-.8c2.7 0 3.2-.7 3.2-4.7v-6.4c0-4-.5-4.7-3.2-4.7v-.8h8.3c4.1 0 6.4 2.1 6.4 5 0 2.5-1.9 4.5-4.9 4.9l2.6 3zm-4-11.4h-2.3v7h2.3c2.3 0 3.3-1.6 3.3-3.5s-1.1-3.5-3.3-3.5zM225.7 219.8c0 4 .5 4.7 3.2 4.7v.8h-7.8v-.8c2.7 0 3.2-.7 3.2-4.7v-6.4c0-4-.5-4.7-3.2-4.7v-.8h6l6 13.4 6-13.4h5.6v.8c-2.7 0-3.2.6-3.2 4.7v6.4c0 4 .5 4.7 3.2 4.7v.8h-9.2v-.8c2.7 0 3.2-.7 3.2-4.7v-7.5l-6.1 13.7h-.6l-6.3-14.2v8zM259.8 226c-2.1 0-3.8-1-4.5-1.5-.2.3-.6.8-.8 1.5h-.7v-7h.8c.3 3.4 2.5 5.4 5.5 5.4 1.7 0 3.1-1 3.1-2.7 0-1.4-1.1-2.5-3.3-3.6l-2.7-1.4c-1.9-1-3.3-2.7-3.3-4.9 0-2.5 2.1-4.6 5-4.6 1.7 0 3 .6 3.8 1.2.2-.2.5-.6.6-1.2h.8v6.8h-.8c-.2-2.4-1.3-5.3-4.2-5.3-1.6 0-2.9.8-2.9 2.3 0 1.4 1 2.2 3.5 3.5l2.7 1.4c2.3 1.2 3.1 3 3.1 4.5 0 3.3-2.6 5.6-5.7 5.6z"/></g></g></svg>