<?xml version="1.0" encoding="UTF-8" standalone="no"?>
<svg width="274px" height="226px" viewBox="0 0 274 226" version="1.1" xmlns="http://www.w3.org/2000/svg" xmlns:xlink="http://www.w3.org/1999/xlink">
    <!-- Generator: Sketch 40.3 (33839) - http://www.bohemiancoding.com/sketch -->
    <title>honeyfarms_logo</title>
    <desc>Created with Sketch.</desc>
    <defs></defs>
    <g id="Page-1" stroke="none" stroke-width="1" fill="none" fill-rule="evenodd">
        <g id="honeyfarms_logo">
            <path d="M198.2,66.9 C197.7,68 196.9,69 195.8,70 C194.7,71 193.2,71.9 191.5,72.7 C189.7,73.5 187.6,74 185.2,74.1 C182.5,74.2 179.7,74 176.9,73.4 C174.1,72.8 170.9,72.3 167.4,72.1 C164.3,71.9 161.8,72 160,72.4 C158.2,72.8 156.7,73.2 155.7,73.6 C156.7,73.4 157.8,73.2 159.1,73.1 C160.4,73 161.6,73 162.9,73 C164.2,73 165.5,73.2 166.8,73.5 C168.1,73.8 169.3,74.3 170.4,75 C173,76.6 174.8,78.3 175.7,80.1 C176.7,81.9 177.1,83.7 176.9,85.5 C176.8,87.1 176.1,88.5 174.8,89.6 C173.6,90.7 172.2,91.2 170.8,91.2 C170,91.2 169.3,91 168.5,90.5 C167.8,90.1 167.2,89.5 166.8,88.8 C166.4,88.1 166.3,87.4 166.5,86.7 C166.7,86 167.3,85.3 168.3,84.7 C168.5,85.2 168.8,85.8 169.3,86.3 C169.7,86.8 170.5,87.1 171.7,87 C172.2,87 172.7,86.8 173.3,86.3 C173.9,85.9 174.3,85.3 174.6,84.5 C174.9,83.7 174.9,82.9 174.8,81.9 C174.6,80.9 174.1,79.9 173.2,78.9 C171.8,77.3 170.3,76.2 168.9,75.9 C167.5,75.5 166.1,75.5 164.9,75.7 C163.6,76 162.5,76.4 161.6,77 C160.7,77.6 159.9,78.1 159.5,78.3 C159.2,78.5 158.9,78.8 158.6,79.1 C158.3,79.4 157.9,79.7 157.6,80.1 C160.3,82.4 162.3,84.7 163.4,86.9 C164.6,89.1 165.1,91.2 164.9,93.2 C164.8,94.2 164.6,95.2 164.3,96.2 C164,97.2 163.5,98.2 162.7,99 C162,99.9 161.1,100.6 160.1,101.1 C159.1,101.6 157.8,101.9 156.3,101.9 C155.8,101.9 155,101.8 154,101.6 C153,101.4 152,100.8 151,99.9 C150.7,101.3 150.4,102.6 150,103.9 C149.6,105.2 149.2,106.3 148.8,107.2 C149.6,107.9 150.4,108.4 151.2,108.7 C152,109 152.7,109.2 153.3,109.2 C154.1,109.1 154.8,109 155.4,108.7 C156,108.5 156.6,108 157.2,107.2 C157.7,108.2 157.9,109.2 157.7,110 C157.5,110.9 157.1,111.6 156.6,112.3 C156,113 155.4,113.5 154.7,113.9 C154,114.3 153.3,114.6 152.8,114.8 C150.7,115.3 149.1,115.3 148,114.7 C146.9,114.2 146,113.8 145.3,113.5 C145.4,113.9 145.2,114.3 144.9,114.5 C144.6,114.8 144.2,115 143.9,115.1 C144.5,115.5 145,116 145.1,116.5 C145.3,117 145.3,117.6 145.3,118.2 C146.7,118.8 148.2,119.2 150,119.4 C151.8,119.6 153.1,119.3 154,118.6 C153.5,118.4 153.2,118.1 153.1,117.6 C153,117.1 153,116.7 153.2,116.5 C153.4,115.9 153.8,115.5 154.3,115.2 C154.8,115 155.5,114.8 156.1,114.6 C156.8,114.5 157.5,114.3 158.2,114.2 C158.9,114.1 159.4,113.8 159.9,113.4 C160.5,112.9 161,111.9 161.5,110.7 C162,109.4 162,107.9 161.4,106.1 C162,106.3 162.5,106.9 162.9,107.8 C163.3,108.8 163.5,109.8 163.4,111 C163.4,112.2 163.1,113.5 162.5,114.8 C161.9,116.1 161,117.2 159.6,118.2 C158.1,119.2 156.6,119.9 155.2,120.3 C153.8,120.7 152.4,120.9 151.2,120.9 C149.9,120.9 148.8,120.8 147.8,120.5 C146.8,120.2 146,120 145.3,119.7 C145.1,120.4 144.8,121.1 144.4,121.8 C144,122.5 143.7,123.2 143.3,123.9 C142.9,124.6 142.5,125.1 142.2,125.6 C141.8,126.1 141.6,126.5 141.4,126.7 C141.2,127.1 141,127.6 140.8,128 C140.6,128.5 140.4,128.9 140.2,129.4 C140,129.8 139.9,130.2 139.7,130.5 C139.6,130.8 139.4,131 139.4,131 C139.3,131 139.1,130.8 139,130.5 C138.9,130.2 138.7,129.8 138.5,129.4 C138.3,129 138.1,128.5 137.9,128 C137.7,127.5 137.5,127.1 137.3,126.7 C137.2,126.5 136.9,126.1 136.5,125.6 C136.1,125.1 135.8,124.5 135.4,123.9 C135,123.2 134.6,122.6 134.3,121.8 C133.9,121.1 133.7,120.4 133.5,119.7 C132.8,120 131.9,120.2 130.9,120.5 C129.9,120.8 128.8,120.9 127.5,120.9 C126.2,120.9 124.9,120.7 123.5,120.3 C122.1,119.9 120.6,119.2 119.1,118.2 C117.7,117.2 116.8,116.1 116.2,114.8 C115.6,113.5 115.3,112.2 115.3,111 C115.3,109.8 115.4,108.7 115.8,107.8 C116.2,106.8 116.7,106.3 117.3,106.1 C116.7,107.9 116.7,109.4 117.2,110.7 C117.7,112 118.2,112.9 118.8,113.4 C119.2,113.8 119.8,114.1 120.5,114.2 C121.2,114.3 121.9,114.5 122.6,114.6 C123.3,114.7 123.9,114.9 124.4,115.2 C124.9,115.4 125.3,115.9 125.5,116.5 C125.6,116.8 125.7,117.2 125.6,117.6 C125.5,118.1 125.2,118.4 124.7,118.6 C125.6,119.4 127,119.6 128.7,119.4 C130.5,119.2 132,118.8 133.4,118.2 C133.3,117.6 133.4,117 133.6,116.5 C133.8,116 134.2,115.5 134.8,115.1 C134.4,115 134.1,114.8 133.8,114.5 C133.5,114.2 133.3,113.9 133.4,113.5 C132.7,113.8 131.8,114.2 130.7,114.7 C129.6,115.2 128,115.2 125.9,114.8 C125.3,114.7 124.7,114.4 124,113.9 C123.3,113.5 122.6,112.9 122.1,112.3 C121.5,111.6 121.1,110.9 121,110 C120.8,109.1 121,108.2 121.5,107.2 C122.1,108 122.7,108.5 123.3,108.7 C123.9,108.9 124.6,109.1 125.4,109.2 C126,109.2 126.7,109 127.5,108.7 C128.3,108.4 129.1,107.9 129.9,107.2 C129.5,106.3 129.1,105.2 128.7,103.9 C128.3,102.6 128,101.3 127.7,99.9 C126.8,100.9 125.8,101.4 124.7,101.6 C123.7,101.8 122.9,101.9 122.4,101.9 C120.9,101.9 119.6,101.6 118.6,101.1 C117.6,100.6 116.7,99.9 116,99 C115.3,98.1 114.8,97.2 114.4,96.2 C114.1,95.2 113.9,94.2 113.8,93.2 C113.7,91.2 114.2,89.1 115.3,86.9 C116.5,84.7 118.4,82.4 121.1,80.1 C120.7,79.8 120.4,79.4 120.1,79.1 C119.8,78.8 119.5,78.5 119.2,78.3 C118.8,78 118.1,77.6 117.1,77 C116.1,76.4 115,75.9 113.8,75.7 C112.5,75.4 111.2,75.5 109.8,75.9 C108.4,76.3 106.9,77.3 105.5,78.9 C104.6,79.9 104.1,80.9 103.9,81.9 C103.7,82.9 103.8,83.7 104.1,84.5 C104.4,85.3 104.8,85.9 105.3,86.3 C105.8,86.7 106.4,87 107,87 C108.2,87.1 108.9,86.8 109.4,86.3 C109.8,85.8 110.2,85.2 110.4,84.7 C111.4,85.3 112,86 112.2,86.7 C112.4,87.4 112.3,88.2 111.9,88.8 C111.5,89.5 110.9,90 110.2,90.5 C109.5,90.9 108.7,91.2 107.9,91.2 C106.5,91.2 105.1,90.7 103.9,89.6 C102.7,88.5 102,87.1 101.8,85.5 C101.7,83.7 102.1,81.9 103,80.1 C104,78.3 105.8,76.6 108.5,75 C109.6,74.3 110.7,73.8 112,73.5 C113.3,73.2 114.5,73 115.8,73 C117.1,73 118.4,73 119.6,73.1 C120.9,73.2 122,73.4 123,73.6 C122,73.2 120.6,72.8 118.7,72.4 C116.9,72 114.4,71.9 111.3,72.1 C107.8,72.4 104.6,72.8 101.8,73.4 C99,74 96.2,74.3 93.5,74.1 C91.1,74 88.9,73.5 87.2,72.7 C85.4,71.9 84,71 82.9,70 C81.8,69 81,67.9 80.5,66.9 C80,65.8 79.7,64.9 79.7,64.1 C79.8,63 80.1,62 80.6,61 C81.1,60 82.1,59.5 83.4,59.4 C84,59.3 84.5,59.5 85,59.9 C85.5,60.3 85.7,60.8 85.7,61.2 C85.8,61.7 85.6,62.1 85.3,62.6 C84.9,63 84.4,63.3 83.7,63.3 C83.1,63.3 82.7,63.2 82.6,63 C82.4,62.8 82.2,62.5 82,62.2 C81.6,62.5 81.4,63.1 81.4,64 C81.3,64.9 81.6,65.9 82.1,66.9 C82.6,67.9 83.5,68.9 84.8,69.8 C86.1,70.7 87.8,71.2 90.1,71.3 C91,71.4 91.8,71.3 92.4,71.1 C93,70.9 93.6,70.6 94.1,70.3 C94.6,70 95.2,69.7 95.7,69.4 C96.2,69.1 96.8,68.9 97.4,68.8 C98,68.7 98.6,68.8 99.1,68.9 C99.6,69 100,69.2 100.4,69.3 C100.8,69.4 101.3,69.5 101.7,69.5 C102.1,69.5 102.6,69.2 103.2,68.7 C103.1,69.7 102.9,70.5 102.7,71 C102.4,71.5 102.1,71.9 101.6,72.3 C102.5,72.2 103.5,72 104.8,71.7 C106.1,71.5 107.4,71.2 108.8,71 C110.2,70.8 111.7,70.6 113.1,70.5 C114.5,70.4 115.9,70.4 117.1,70.6 C115.7,69.8 114.8,68.9 114.3,68 C113.8,67.1 113.5,66.3 113.5,65.8 C113.5,65.4 113.7,65 114.1,64.6 C114.5,64.2 115,64 115.6,64 C116.2,64 116.6,64.2 116.9,64.5 C117.2,64.8 117.3,65.2 117.3,65.6 C117.3,66.1 117.1,66.5 116.7,66.7 C116.3,66.9 115.9,67 115.6,67 C116,67.8 116.5,68.4 117.2,68.8 C117.9,69.2 118.6,69.6 119.4,69.9 C120.2,70.2 121,70.5 121.9,70.7 C122.8,70.9 123.6,71.1 124.4,71.3 C126.1,71.8 128.1,72.6 130.4,73.7 C129.1,72.4 127.9,71 126.9,69.6 C125.9,68.2 125.3,67.2 125.1,66.7 C124.7,65.6 124.6,64.6 124.6,63.8 C124.6,63 124.7,62.3 124.9,61.7 C124.3,62.2 123.6,62.4 122.7,62.3 C121.8,62.2 121.1,62 120.5,61.7 C120.1,61.5 119.7,61.2 119.3,60.7 C118.9,60.2 118.5,59.7 118.2,59.1 C117.8,58.5 117.5,58 117.3,57.4 C117,56.9 116.8,56.5 116.7,56.3 C116.3,55.8 116,55.4 115.7,55.3 C115.4,55.2 114.9,55.2 114.1,55.2 C114.7,54.3 115.7,53.8 117.1,53.8 C118.4,53.7 119.5,53.8 120.3,54 C121.7,54.3 122.6,54.9 123.2,55.6 C123.8,56.3 124.4,56.9 125,57.3 C124.8,56.1 125.1,54.9 126,53.8 C126.9,52.7 127.7,51.8 128.5,51.1 C129.4,50.3 130.7,49.7 132.4,49.2 C134.1,48.8 135.6,48.4 137.2,48.1 C136.4,47.1 135.7,46.1 135,45.1 C134.4,44 134,43 133.8,42.1 C133.7,40.2 133.8,38.7 134.2,37.7 C134.6,36.7 135.2,36.2 136,36.2 C136.9,36.2 137.5,36.6 137.6,37.5 C137.6,38 137.3,38.4 136.8,38.7 C136.3,39 135.8,39 135.4,38.6 C134.9,39.3 134.7,40.1 134.8,40.9 C134.9,41.8 135.2,42.6 135.7,43.4 C136.2,44.2 136.8,44.9 137.5,45.6 C138.2,46.3 138.9,46.8 139.7,47.2 C140.3,46.8 141,46.2 141.8,45.6 C142.5,44.9 143.1,44.2 143.6,43.4 C144.1,42.6 144.4,41.8 144.5,40.9 C144.6,40 144.4,39.3 143.9,38.6 C143.5,38.9 143,39 142.5,38.7 C142,38.4 141.7,38 141.7,37.5 C141.8,36.6 142.4,36.2 143.3,36.2 C145.2,36.2 145.9,38.2 145.6,42.1 C145.5,43.1 145.1,44.1 144.4,45.1 C143.8,46.2 143,47.2 142.2,48.1 C143.7,48.4 145.3,48.8 147,49.2 C148.7,49.6 150,50.2 150.9,51.1 C151.7,51.8 152.5,52.7 153.4,53.8 C154.3,54.9 154.6,56.1 154.4,57.3 C155,56.9 155.7,56.3 156.2,55.6 C156.8,54.9 157.7,54.4 159.1,54 C159.5,53.9 159.9,53.9 160.5,53.8 C161.1,53.7 161.7,53.7 162.2,53.8 C162.8,53.9 163.3,54 163.9,54.2 C164.5,54.4 164.9,54.7 165.2,55.2 C164.5,55.1 164,55.1 163.6,55.3 C163.3,55.4 162.9,55.7 162.6,56.3 C162.5,56.5 162.3,56.9 162,57.4 C161.7,57.9 161.4,58.5 161.1,59.1 C160.7,59.7 160.4,60.2 160,60.7 C159.6,61.2 159.2,61.5 158.8,61.7 C158.2,62 157.5,62.2 156.6,62.3 C155.7,62.4 155,62.2 154.4,61.7 C154.5,62.2 154.7,62.9 154.7,63.8 C154.8,64.6 154.6,65.6 154.3,66.7 C154.1,67.2 153.5,68.2 152.4,69.6 C151.4,71 150.2,72.4 148.9,73.7 C151.2,72.6 153.2,71.8 154.9,71.3 C155.6,71.1 156.4,70.9 157.3,70.7 C158.2,70.5 159,70.2 159.8,69.9 C160.6,69.6 161.3,69.2 162,68.8 C162.7,68.4 163.2,67.8 163.6,67 C163.2,67 162.9,66.9 162.5,66.7 C162.1,66.5 161.9,66.2 161.9,65.6 C161.9,65.2 162,64.8 162.3,64.5 C162.6,64.2 163,64 163.6,64 C164.2,64 164.7,64.2 165.1,64.6 C165.5,65 165.7,65.4 165.7,65.8 C165.7,66.3 165.4,67.1 164.9,68 C164.4,68.9 163.5,69.8 162.1,70.6 C163.3,70.5 164.6,70.4 166,70.5 C167.5,70.6 168.9,70.8 170.4,71 C171.8,71.2 173.2,71.4 174.4,71.7 C175.7,71.9 176.7,72.1 177.6,72.3 C177.2,72 176.8,71.5 176.5,71 C176.2,70.5 176,69.7 176,68.7 C176.6,69.2 177.1,69.4 177.5,69.5 C177.9,69.5 178.4,69.5 178.8,69.3 C179.2,69.2 179.7,69 180.1,68.9 C180.6,68.8 181.1,68.7 181.8,68.8 C182.4,68.9 183,69.1 183.5,69.4 C184,69.7 184.5,70 185.1,70.3 C185.6,70.6 186.2,70.9 186.8,71.1 C187.4,71.3 188.2,71.4 189.1,71.3 C191.4,71.2 193.2,70.6 194.4,69.8 C195.7,68.9 196.6,67.9 197.1,66.9 C197.6,65.9 197.9,64.9 197.8,64 C197.7,63.1 197.5,62.5 197.2,62.2 C197,62.5 196.8,62.8 196.6,63 C196.4,63.2 196,63.3 195.5,63.3 C194.8,63.3 194.2,63.1 193.9,62.6 C193.5,62.2 193.4,61.7 193.5,61.2 C193.5,60.7 193.7,60.3 194.2,59.9 C194.7,59.5 195.2,59.3 195.8,59.4 C197.1,59.5 198,60.1 198.6,61 C199.1,62 199.4,63 199.5,64.1 C198.9,64.9 198.7,65.9 198.2,66.9 L198.2,66.9 Z M125.9,90.5 C126.6,90.8 127.3,91.2 127.8,91.8 C128.8,89.4 130.2,87.2 132.1,85.2 C133.9,83.2 135.7,81.6 137.3,80.4 C135.8,79.4 134.2,78.6 132.7,78 C131.1,77.3 129.6,77.1 128.3,77.2 C128.9,78.1 129,79 128.7,79.9 C128.4,80.8 127.7,81.5 126.8,82 C125.9,82.4 125.1,82.5 124.3,82.4 C123.5,82.2 122.8,81.9 122,81.3 C120.3,82.9 119.1,84.5 118.4,86.1 C117.7,87.7 117.2,89 117.1,90 C117,90.8 117.1,91.5 117.2,92.3 C117.3,93.1 117.6,93.7 118,94.3 C118.4,94.8 118.8,95.3 119.4,95.6 C120,95.9 120.7,96.1 121.5,96 C120.9,95.2 120.5,94.5 120.4,93.8 C120.3,93.1 120.5,92.5 120.8,91.9 C121.1,91.4 121.6,90.9 122.1,90.6 C122.7,90.3 123.3,90.1 123.9,90 C124.4,90.2 125.1,90.3 125.9,90.5 L125.9,90.5 Z M125.9,64.7 C126,65.7 126.3,66.7 126.8,67.7 C127.3,68.7 127.9,69.7 128.7,70.7 C129.5,71.7 130.3,72.5 131.2,73.3 C132.4,72.3 133.6,71.2 134.7,69.9 C135.8,68.6 136.8,67 137.6,65.1 C138.2,63.5 138.3,61.9 137.8,60.2 C137.3,58.5 136.3,57.4 135,56.9 C136.2,56.4 137.2,55.8 137.8,55.2 C138.4,54.6 138.9,53.8 139.1,52.7 C139.2,53.8 139.6,54.6 140.3,55.2 C140.9,55.8 141.9,56.3 143.1,56.9 C141.8,57.4 140.9,58.6 140.3,60.2 C139.8,61.9 139.8,63.5 140.5,65.1 C141.3,67 142.2,68.6 143.4,69.9 C144.5,71.2 145.7,72.3 146.9,73.3 C147.8,72.5 148.6,71.7 149.4,70.7 C150.2,69.7 150.8,68.7 151.3,67.7 C151.8,66.7 152.1,65.7 152.2,64.7 C152.3,63.7 152.1,62.9 151.5,62.2 C151.4,62.5 151.3,62.9 151.2,63.3 C151.2,63.7 150.8,64 150.2,64.1 C149.3,64.3 148.6,64.5 148,64.6 C147.4,64.7 146.7,64.7 145.8,64.5 C144.7,64.4 143.9,64.5 143.4,64.8 C142.9,65.1 142.6,65.5 142.4,65.8 C142.2,65.7 142,65.5 141.8,65 C141.6,64.6 141.6,64 141.6,63.4 C141.7,62.8 141.9,62.1 142.3,61.4 C142.7,60.7 143.3,60 144.2,59.4 C145.1,58.9 145.9,58.5 146.6,58.4 C147.3,58.3 147.9,58.3 148.5,58.3 C149,58.3 149.5,58.4 149.8,58.6 C150.2,58.7 150.4,58.7 150.6,58.6 C149.6,58.3 148.5,57.9 147.5,57.3 C146.4,56.7 145.4,56.1 144.4,55.4 C143.4,54.7 142.6,54 141.8,53.4 C141,52.7 140.5,52.2 140.1,51.8 L139.6,51.3 C139.4,51.1 139.3,51 139.1,50.8 C138.9,50.9 138.7,51.1 138.5,51.3 L138,51.8 C137.6,52.2 137.1,52.7 136.3,53.4 C135.5,54.1 134.7,54.7 133.7,55.4 C132.7,56.1 131.7,56.7 130.6,57.3 C129.5,57.9 128.5,58.3 127.5,58.6 C127.6,58.7 127.9,58.7 128.3,58.6 C128.7,58.5 129.1,58.4 129.6,58.3 C130.1,58.3 130.8,58.3 131.5,58.4 C132.2,58.5 133,58.8 133.9,59.4 C134.8,60 135.4,60.7 135.8,61.4 C136.2,62.1 136.4,62.8 136.5,63.4 C136.6,64 136.5,64.5 136.3,65 C136.1,65.4 135.9,65.7 135.7,65.8 C135.6,65.5 135.2,65.1 134.7,64.8 C134.2,64.5 133.4,64.4 132.3,64.5 C131.4,64.6 130.7,64.7 130.1,64.6 C129.5,64.5 128.8,64.3 127.9,64.1 C127.3,64 126.9,63.7 126.9,63.3 C126.9,62.9 126.8,62.5 126.6,62.2 C126,63 125.8,63.8 125.9,64.7 L125.9,64.7 Z M148.7,98 C148.7,95.9 148.5,94 148,92.5 C147.5,91 146.9,89.7 146.1,88.6 C145.3,87.6 144.8,86.7 144.3,86.1 C143.9,85.6 143.3,84.9 142.3,84 C141.3,83.2 140.2,82.3 139,81.3 C137.7,82.3 136.6,83.2 135.6,84 C134.6,84.8 134,85.5 133.6,86.1 C133.2,86.7 132.6,87.5 131.8,88.6 C131,89.6 130.4,90.9 129.9,92.5 C129.4,94 129.2,95.9 129.2,98 C129.2,100.1 129.9,102.6 131.2,105.3 C131.5,104.8 131.8,104.1 132.1,103.2 C132.4,102.4 132.7,101.6 133,100.8 C133.3,100 133.7,99.4 134.2,98.9 C134.7,98.4 135.2,98.1 135.9,98.1 C136.5,98.1 136.9,98.2 137.2,98.5 C137.5,98.8 137.9,99.3 138.2,100.1 C138.6,99.8 139.1,99.8 139.6,100.1 C140,99.3 140.3,98.7 140.6,98.5 C140.9,98.2 141.4,98.1 141.9,98.1 C142.5,98.1 143.1,98.4 143.6,98.9 C144.1,99.4 144.5,100 144.8,100.8 C145.1,101.6 145.4,102.3 145.7,103.2 C146,104 146.3,104.7 146.6,105.3 C148,102.6 148.6,100.2 148.7,98 L148.7,98 Z M139,79 C139.8,78.5 140.6,77.9 141.4,77.4 C142.2,76.9 142.9,76.3 143.5,75.9 C144.2,75.4 144.9,74.8 145.6,74.4 C144.2,73.4 143,72.1 141.8,70.6 C140.6,69.1 139.7,67.3 139.1,65.1 C138.4,67.3 137.4,69.1 136.3,70.6 C135.1,72.1 133.9,73.3 132.5,74.4 C133.1,74.9 133.8,75.4 134.6,75.9 C135.2,76.4 135.9,76.9 136.7,77.4 C137.5,77.9 138.3,78.5 139.1,79 L139,79 C139.1,79 139.1,79 139.1,79.1 C139.1,79.1 139.1,79.2 139.2,79.2 L139.3,79.1 L139,79.1 L139,79 Z M142.6,88.6 C141.6,87.7 140.4,87.2 139,87.2 C137.6,87.2 136.3,87.7 135.3,88.6 C134.3,89.5 133.8,90.7 133.8,92 C133.8,93.4 134.3,94.5 135.3,95.4 C136.3,96.3 137.5,96.8 139,96.8 C140.4,96.8 141.6,96.3 142.6,95.4 C143.6,94.5 144.1,93.3 144.1,92 C144.1,90.7 143.6,89.6 142.6,88.6 L142.6,88.6 Z M141.6,109.8 C142.3,109.1 142.6,108.3 142.6,107.4 C142.6,106.4 142.3,105.6 141.6,104.9 C140.9,104.2 140.1,103.9 139.1,103.9 C138.1,103.9 137.2,104.2 136.5,104.9 C135.8,105.6 135.4,106.4 135.4,107.4 C135.4,108.4 135.8,109.2 136.5,109.8 C137.2,110.5 138.1,110.8 139.1,110.8 C140,110.8 140.9,110.5 141.6,109.8 L141.6,109.8 Z M153.7,82.5 C152.9,82.7 152.1,82.6 151.2,82.1 C150.3,81.6 149.6,80.9 149.3,80 C149,79.1 149.1,78.2 149.7,77.3 C148.3,77.2 146.9,77.4 145.3,78.1 C143.7,78.8 142.2,79.6 140.7,80.5 C142.4,81.7 144.1,83.3 146,85.3 C147.9,87.3 149.3,89.5 150.3,91.9 C150.8,91.3 151.4,90.8 152.1,90.6 C152.8,90.3 153.5,90.2 154.2,90.3 C154.8,90.4 155.5,90.6 156,90.9 C156.6,91.2 157,91.6 157.3,92.2 C157.6,92.7 157.7,93.4 157.7,94.1 C157.6,94.8 157.3,95.5 156.6,96.3 C157.4,96.4 158.1,96.2 158.7,95.9 C159.3,95.6 159.7,95.1 160.1,94.6 C160.5,94.1 160.7,93.4 160.9,92.6 C161,91.8 161.1,91.1 161,90.3 C160.9,89.3 160.4,88 159.7,86.4 C159,84.8 157.7,83.1 156.1,81.6 C155.3,81.9 154.5,82.3 153.7,82.5 L153.7,82.5 Z" id="Shape" fill="#4F87A0"></path>
            <g id="Group" transform="translate(118.000000, 0.000000)" fill="#4F87A0">
                <path d="M20.1,6.9 C20.7,11.9 20.9,14.5 20.9,14.6 L20.9,24.9 C20.9,25.5 21,25.9 21.2,26.3 C21.4,26.7 21.7,26.9 21.9,26.9 C22.2,26.9 22.5,26.7 22.9,26.4 C23.2,26 23.4,25.7 23.4,25.3 C23.4,24.9 23.3,23.5 23,21.1 C22.7,18.7 22.6,16.5 22.6,14.5 C22.6,10.3 22.8,7.7 23.1,6.8 C23.3,6.2 23.6,5.6 24.2,5 C24.6,4.5 24.8,4.1 24.8,3.8 C24.8,3 24.4,2.1 23.6,1.3 C22.8,0.5 22,0.1 21.2,0.1 C20.4,0.1 19.7,0.5 19,1.3 C18.3,2.1 18,3 18,4 C18,4.9 18.7,5.8 20.1,6.9 L20.1,6.9 Z" id="Shape"></path>
                <path d="M9.6,25.3 C9.9,26.5 10.4,27.1 11,27.1 C11.6,27.1 11.9,26.7 11.9,26 C11.9,24.5 11,22.2 9.3,19.3 C8.4,17.8 7.5,16.3 6.6,14.9 C5.9,13.7 5.5,12.9 5.5,12.4 C5.5,12.3 5.5,12.2 5.6,12 C5.6,11.8 5.7,11.7 5.7,11.5 C5.7,10.6 5.2,10.2 4.1,10.2 C3,10.2 2.2,10.5 1.4,11.2 C0.7,11.9 0.3,12.7 0.3,13.8 C0.3,14.6 0.6,15.4 1.1,16.2 C1.6,17 2.2,17.4 2.7,17.4 C3,17.4 3.4,17.3 3.8,17.2 C4.3,17.1 4.6,17 4.8,17 C5,17 5.3,17.4 6,18.2 C7.6,20.3 8.6,21.6 8.8,22.2 C9.1,23.2 9.3,24.3 9.6,25.3 L9.6,25.3 Z" id="Shape"></path>
                <path d="M25.8,27 C26.6,27 27.1,26.8 27.3,26.3 C27.4,26 27.5,25.3 27.5,24.2 L27.5,23.7 L27.5,23.2 C27.5,22.5 27.9,20.9 28.7,18.5 C29.8,15 30.7,12 31.3,9.7 C33.5,9.6 34.6,8 34.6,4.9 C34.6,3.1 33.6,2.2 31.5,2.2 C29.1,2.2 27.9,3.4 27.9,5.7 C27.9,6 28.1,6.6 28.4,7.3 C28.8,8 28.9,8.5 28.9,8.7 C28.9,8.9 28.7,9.8 28.2,11.5 C27.5,13.7 27,15.9 26.6,17.9 C25.4,23.6 24.7,26.3 24.7,26.1 C24.7,26.6 25.1,27 25.8,27 L25.8,27 Z" id="Shape"></path>
                <path d="M10.7,9.4 C11.3,9.6 11.6,10 11.7,10.4 C11.8,10.8 11.8,11.2 11.9,11.6 C12,11.8 12.2,12.2 12.6,12.7 C13,13.2 13.2,13.7 13.3,14.1 C13.8,15.8 14.4,18.3 15,21.8 C15.5,24.3 15.7,25.7 15.8,25.9 C16,26.7 16.5,27.2 17.1,27.2 C18,27.2 18.4,26.9 18.4,26.3 C18.4,25.6 16.8,19.2 13.5,7.1 C13.6,6.8 13.8,6.3 14.1,5.8 C14.3,5.4 14.5,5.1 14.5,5 C14.5,4.3 14.1,3.7 13.4,3.1 C12.7,2.5 11.8,2.3 10.9,2.3 C10.1,2.3 9.4,2.7 8.8,3.6 C8.2,4.4 7.8,5.5 7.8,6.8 C7.8,7.6 8,8.2 8.4,8.5 C8.5,8.5 9.3,8.9 10.7,9.4 L10.7,9.4 Z" id="Shape"></path>
                <path d="M41.6,9.9 C40.9,9.2 40.2,8.8 39.3,8.8 C36.6,8.8 35.3,9.4 35.3,10.7 C35.3,10.9 35.4,11.4 35.7,12 C36,12.6 36.1,13.1 36.1,13.4 C36.1,13.6 35.8,14.2 35.1,15.3 C34.3,16.7 33.6,18 33.1,19.2 C32.2,21.2 31.6,23.4 31.2,25.8 C31.4,26.5 31.6,26.8 32.1,26.8 C32.7,26.8 33.7,24.8 35.1,20.9 C36.6,17 37.6,15 38.3,15 C38.5,15 38.7,15.1 39.1,15.2 C39.5,15.3 39.8,15.4 40,15.4 C40.7,15.4 41.3,15.1 41.8,14.5 C42.3,13.9 42.5,13.2 42.5,12.2 C42.7,11.5 42.3,10.7 41.6,9.9 L41.6,9.9 Z" id="Shape"></path>
                <path d="M35.2,28.3 L33.6,28.5 C30.8,28.9 29.3,29.1 29.1,29.1 C25.7,29.1 22.4,29.1 19.4,29 C17.3,28.9 15.3,28.9 13.5,28.8 C11.9,28.7 11.1,28.7 11.2,28.7 L10.7,28.7 C9.4,28.7 8.6,28.8 8.2,29 C7.6,29.3 7.4,30 7.4,31.1 C7.4,32.5 8.3,33.2 10,33.2 C12.3,33.2 15.1,33.2 18.5,33.1 C21.9,33 24.1,33 25.2,33 C25.7,33 26.3,33 27.1,33.1 C27.9,33.1 28.4,33.2 28.6,33.2 C32.4,33.2 34.4,33.1 34.6,32.9 C34.8,32.7 35.1,32.2 35.3,31.4 C35.6,30.6 35.7,29.9 35.7,29.1 C35.7,28.6 35.5,28.4 35.2,28.3 L35.2,28.3 Z" id="Shape"></path>
            </g>
            <g id="Group" transform="translate(75.000000, 174.000000)" fill="#E28432">
                <path d="M15.4,0.7 L15.6,3.9 L15.1,3.9 L15,3.4 C14.8,2.7 14.5,2.2 14.2,2 C13.9,1.7 13.2,1.6 12.2,1.6 L9.1,1.6 L9.1,11.8 C9.1,14.2 9.4,14.6 11.4,14.6 L11.4,15.1 L4.9,15.1 L4.9,14.6 C6.9,14.6 7.2,14.2 7.2,11.8 L7.2,1.6 L4,1.6 C3,1.6 2.3,1.7 2,2 C1.7,2.2 1.4,2.7 1.2,3.4 L1.1,3.9 L0.6,3.9 L0.8,0.7 L15.4,0.7 L15.4,0.7 Z" id="Shape"></path>
                <path d="M27.9,15.1 L22.6,15.1 L22.6,14.6 C24.2,14.6 24.3,14.3 24.3,11.8 L24.3,10.4 C24.3,8.8 23.7,7.8 22.5,7.8 C21.9,7.8 21.3,8 20.7,8.5 C20.1,9 19.9,9.5 19.9,10.2 L19.9,11.8 C19.9,14.3 20.1,14.6 21.4,14.6 L21.4,15.1 L16.3,15.1 L16.3,14.6 C18,14.6 18.2,14.2 18.2,11.8 L18.2,4.2 C18.2,1.8 18,1.4 16.3,1.4 L16.3,0.9 L19.9,0.3 L19.9,8.4 C20.7,7.4 21.8,6.7 23,6.7 C25.1,6.7 26,8.1 26,10.3 L26,11.8 C26,14.2 26.3,14.6 27.9,14.6 L27.9,15.1 L27.9,15.1 Z" id="Shape"></path>
                <path d="M31.4,10.5 L31.4,11.3 C31.4,13.2 32.5,14.5 34.6,14.5 C35.4,14.5 36.6,14 37.2,13.4 L37.6,13.9 C36.7,14.8 35.3,15.5 33.9,15.5 C31.3,15.5 29.5,13.5 29.5,11.1 C29.5,8.6 31.7,6.7 33.9,6.7 C34.8,6.7 35.6,7 36.3,7.6 C37,8.2 37.3,8.9 37.3,9.7 C37.3,10 37.3,10.3 37.2,10.5 L31.4,10.5 L31.4,10.5 Z M35.6,9.6 C35.6,9.5 35.7,9.3 35.7,9.1 C35.7,8.3 35.1,7.6 33.9,7.6 C32.9,7.6 32,8.4 31.6,9.5 L35.6,9.5 L35.6,9.6 Z" id="Shape"></path>
                <path d="M48.2,15.5 C47.6,15.5 47.1,15.3 46.5,15 C46.2,14.8 46,14.8 45.9,14.8 C45.7,14.8 45.6,15.1 45.6,15.6 L45.1,15.6 L45.1,12 L45.6,12 C45.6,12.6 45.8,13.2 46.3,13.8 C46.8,14.4 47.4,14.7 48.2,14.7 C49,14.7 49.5,14.1 49.5,13.5 C49.5,12.9 49,12.5 48.2,12 L46.9,11.3 C45.8,10.7 45.3,9.8 45.3,8.9 C45.3,7.7 46.4,6.7 47.7,6.7 C48.4,6.7 48.9,6.9 49.4,7.1 C49.6,7.2 49.7,7.2 49.7,7.2 C49.8,7.2 49.9,7 49.9,6.6 L50.4,6.6 L50.4,9.4 L49.9,9.4 C49.9,8.3 49.1,7.4 48,7.4 C47.2,7.4 46.8,7.7 46.8,8.4 C46.8,9 47.1,9.3 48.3,9.9 L49.5,10.5 C50.6,11.1 51.2,11.9 51.2,12.8 C51,14.4 49.8,15.5 48.2,15.5 L48.2,15.5 Z" id="Shape"></path>
                <path d="M58.4,10 L56.3,15.5 L55.8,15.5 L53,9 C52.5,7.9 52.1,7.6 51.4,7.6 L51.4,7.1 L55.7,7.1 L55.7,7.6 C55,7.6 54.6,7.8 54.6,8.3 C54.6,8.5 54.7,8.7 54.8,9 L56.4,12.7 L58.3,7.1 L58.8,7.1 L61.2,12.7 L62.5,9 C62.6,8.7 62.7,8.4 62.7,8.3 C62.7,7.8 62.4,7.6 61.8,7.6 L61.8,7.1 L65.2,7.1 L65.2,7.6 C64.4,7.6 63.9,8 63.5,9 L61.1,15.5 L60.6,15.5 L58.4,10 L58.4,10 Z" id="Shape"></path>
                <path d="M68.1,10.5 L68.1,11.3 C68.1,13.2 69.2,14.5 71.3,14.5 C72.1,14.5 73.3,14 73.9,13.4 L74.3,13.9 C73.4,14.8 72,15.5 70.6,15.5 C68,15.5 66.2,13.5 66.2,11.1 C66.2,8.6 68.4,6.7 70.6,6.7 C71.5,6.7 72.3,7 73,7.6 C73.7,8.2 74,8.9 74,9.7 C74,10 74,10.3 73.9,10.5 L68.1,10.5 L68.1,10.5 Z M72.2,9.6 C72.2,9.5 72.3,9.3 72.3,9.1 C72.3,8.3 71.7,7.6 70.5,7.6 C69.5,7.6 68.6,8.4 68.2,9.5 L72.2,9.5 L72.2,9.6 Z" id="Shape"></path>
                <path d="M78.2,10.5 L78.2,11.3 C78.2,13.2 79.3,14.5 81.4,14.5 C82.2,14.5 83.4,14 84,13.4 L84.4,13.9 C83.5,14.8 82.1,15.5 80.7,15.5 C78.1,15.5 76.3,13.5 76.3,11.1 C76.3,8.6 78.5,6.7 80.7,6.7 C81.6,6.7 82.4,7 83.1,7.6 C83.8,8.2 84.1,8.9 84.1,9.7 C84.1,10 84.1,10.3 84,10.5 L78.2,10.5 L78.2,10.5 Z M82.3,9.6 C82.3,9.5 82.4,9.3 82.4,9.1 C82.4,8.3 81.8,7.6 80.6,7.6 C79.6,7.6 78.7,8.4 78.3,9.5 L82.3,9.5 L82.3,9.6 Z" id="Shape"></path>
                <path d="M87.2,7.9 L86,7.9 L86,7.3 C87.4,7 87.9,6.1 88.1,4.4 L88.9,4.4 L88.9,7 L91,7 L91,7.8 L88.9,7.8 L88.9,12.6 C88.9,13.8 89.3,14.4 90,14.4 C90.5,14.4 91,14.1 91.6,13.6 L92,14 C91.3,14.8 90.3,15.4 89.5,15.4 C88.1,15.4 87.3,14.5 87.3,12.7 L87.3,7.9 L87.2,7.9 Z" id="Shape"></path>
                <path d="M103.9,15.1 L98.4,15.1 L98.4,14.6 C100.1,14.6 100.3,14.2 100.3,11.8 L100.3,4.2 C100.3,1.8 100.1,1.4 98.4,1.4 L98.4,0.9 L102,0.3 L102,11.8 C102,14.2 102.3,14.6 103.9,14.6 L103.9,15.1 L103.9,15.1 Z" id="Shape"></path>
                <path d="M110.8,15.1 L105.3,15.1 L105.3,14.6 C106.9,14.6 107.2,14.2 107.2,11.8 L107.2,10.6 C107.2,8.2 106.9,7.8 105.3,7.8 L105.3,7.3 L108.9,6.7 L108.9,11.8 C108.9,14.2 109.2,14.6 110.8,14.6 L110.8,15.1 L110.8,15.1 Z M108,4.3 C107.4,4.3 106.9,3.8 106.9,3.2 C106.9,2.6 107.4,2.1 108,2.1 C108.6,2.1 109.1,2.6 109.1,3.2 C109,3.9 108.6,4.3 108,4.3 L108,4.3 Z" id="Shape"></path>
                <path d="M115.7,7.9 L115.7,11.7 C115.7,14.1 116,14.5 117.6,14.5 L117.6,15 L112.1,15 L112.1,14.5 C113.7,14.5 114,14.1 114,11.7 L114,7.9 L112,7.9 L112,7.1 L114,7.1 L114,4.8 C114,1.6 115.9,0.3 117.9,0.3 C119.4,0.3 120.3,1.2 120.3,2.1 C120.3,2.7 120,3 119.5,3 C119,3 118.9,2.7 118.6,2.2 C118.3,1.5 118.1,1.2 117.4,1.2 C116.2,1.2 115.6,2.2 115.6,4.9 L115.6,7.2 L118,7.2 L118,8 L115.7,8 L115.7,7.9 Z" id="Shape"></path>
                <path d="M121.8,10.5 L121.8,11.3 C121.8,13.2 122.9,14.5 125,14.5 C125.8,14.5 127,14 127.6,13.4 L128,13.9 C127.1,14.8 125.7,15.5 124.3,15.5 C121.7,15.5 119.9,13.5 119.9,11.1 C119.9,8.6 122.1,6.7 124.3,6.7 C125.2,6.7 126,7 126.7,7.6 C127.4,8.2 127.7,8.9 127.7,9.7 C127.7,10 127.7,10.3 127.6,10.5 L121.8,10.5 L121.8,10.5 Z M125.9,9.6 C125.9,9.5 126,9.3 126,9.1 C126,8.3 125.4,7.6 124.2,7.6 C123.2,7.6 122.3,8.4 121.9,9.5 L125.9,9.5 L125.9,9.6 Z" id="Shape"></path>
            </g>
            <g id="Group" transform="translate(0.000000, 138.000000)" fill="#4F87A0">
                <path d="M1,26.7 L0.2,26.7 L0.2,17.8 L1,17.8 C1,17.8 1.1,25 8.4,25 C11.3,25 13.4,23.1 13.4,20.6 C13.4,18.7 11.5,17.1 8.8,15.7 L4.9,13.7 C2.6,12.5 0.4,10.1 0.4,7.1 C0.4,3.8 3.2,1.1 7.1,1.1 C9.5,1.1 10.8,1.9 12,2.7 C12.5,2.3 13,1.7 13.2,0.8 L14,0.8 L14,9.7 L13.2,9.7 C12.9,6.5 11.7,2.7 7,2.7 C4.7,2.7 3.1,4.3 3.1,6.3 C3.1,8.4 4.5,9.5 8,11.3 L11.9,13.3 C15,14.9 16.1,17.2 16.1,19.4 C16.1,23.8 12.6,26.6 8.5,26.6 C5.4,26.6 3.5,25 2.2,24.7 C1.7,25.2 1.2,25.8 1,26.7 L1,26.7 Z" id="Shape"></path>
                <path d="M33.8,25.2 L33.8,26 L24.6,26 L24.6,25.2 C27.3,25.2 27.8,24.5 27.8,20.5 L27.8,14.1 C27.8,10.1 27.3,9.4 24.6,9.4 L24.6,8.6 L32.9,8.6 C37,8.6 39.3,10.7 39.3,13.6 C39.3,16.4 37,18.5 32.9,18.5 L30.6,18.5 L30.6,20.5 C30.6,24.6 31.1,25.2 33.8,25.2 L33.8,25.2 Z M32.9,10.1 L30.6,10.1 L30.6,17.1 L32.9,17.1 C35.2,17.1 36.2,15.5 36.2,13.6 C36.2,11.7 35.2,10.1 32.9,10.1 L32.9,10.1 Z" id="Shape"></path>
                <path d="M59.2,21.5 C60.8,23.4 62.7,25 64.6,25.2 L64.6,26 L59.4,26 L53.9,18.5 L52.8,18.5 L52.8,20.5 C52.8,24.5 53.3,25.2 56,25.2 L56,26 L46.8,26 L46.8,25.2 C49.5,25.2 50,24.5 50,20.5 L50,14.1 C50,10.1 49.5,9.4 46.8,9.4 L46.8,8.6 L55.1,8.6 C59.2,8.6 61.5,10.7 61.5,13.6 C61.5,16.1 59.6,18.1 56.6,18.5 L59.2,21.5 L59.2,21.5 Z M55.2,10.1 L52.9,10.1 L52.9,17.1 L55.2,17.1 C57.5,17.1 58.5,15.5 58.5,13.6 C58.5,11.7 57.4,10.1 55.2,10.1 L55.2,10.1 Z" id="Shape"></path>
                <path d="M71.2,26 L71.2,25.2 C73.9,25.2 74.4,24.5 74.4,20.5 L74.4,14.1 C74.4,10.1 73.9,9.4 71.2,9.4 L71.2,8.6 L80.4,8.6 L80.4,9.4 C77.7,9.4 77.2,10 77.2,14.1 L77.2,20.5 C77.2,24.5 77.7,25.2 80.4,25.2 L80.4,26 L71.2,26 L71.2,26 Z" id="Shape"></path>
                <path d="M89,9.4 L89,8.6 L93.9,8.6 L104.6,21.3 L104.6,14.1 C104.6,10.1 104.1,9.4 101.4,9.4 L101.4,8.6 L109.2,8.6 L109.2,9.4 C106.5,9.4 106,10 106,14.1 L106,26.7 L105.2,26.7 L93.5,12.7 L93.5,20.6 C93.5,24.6 94,25.3 96.7,25.3 L96.7,26.1 L89,26.1 L89,25.3 C91.7,25.3 92.2,24.6 92.2,20.6 L92.2,14.2 C92.2,10.1 91.7,9.4 89,9.4 L89,9.4 Z" id="Shape"></path>
                <path d="M127.4,26.7 C122.4,26.7 118.3,22.5 118.3,17.3 C118.3,12.2 122.4,7.9 127.4,7.9 C129.3,7.9 131.5,9 132.7,10.6 C133,10.3 133.3,9.3 133.4,8.6 L134.2,8.6 L134.2,15.6 L133.4,15.6 C132.6,11.9 130.5,9.5 127.4,9.5 C122.9,9.5 121.5,14 121.5,17.3 C121.5,20.7 122.9,25.1 127.4,25.1 C129.4,25.1 132.5,23.9 132.5,21.7 C132.5,20.1 131,19.2 129,19.2 L129,18.4 L137.9,18.4 L137.9,19.2 C135.2,19.2 134.7,19.9 134.7,23.9 L134.7,25.1 C132.2,25.2 129.7,26.7 127.4,26.7 L127.4,26.7 Z" id="Shape"></path>
                <path d="M151.8,20.5 C151.8,24.5 152.3,25.2 155.6,25.2 L155.6,26 L144.7,26 L144.7,25.2 C148,25.2 148.5,24.5 148.5,20.5 L148.5,7.4 C148.5,3.4 148,2.7 144.7,2.7 L144.7,1.9 L155.6,1.9 L155.6,2.7 C152.3,2.7 151.8,3.3 151.8,7.4 L151.8,12.5 L165.5,12.5 L165.5,7.4 C165.5,3.4 165,2.7 161.6,2.7 L161.6,1.9 L172.5,1.9 L172.5,2.7 C169.1,2.7 168.6,3.3 168.6,7.4 L168.6,20.5 C168.6,24.5 169.1,25.2 172.5,25.2 L172.5,26 L161.6,26 L161.6,25.2 C164.9,25.2 165.5,24.5 165.5,20.5 L165.5,14 L151.8,14 L151.8,20.5 L151.8,20.5 Z" id="Shape"></path>
                <path d="M191,26.7 C185.6,26.7 181.2,22.5 181.2,17.3 C181.2,12.2 185.6,7.9 191,7.9 C196.4,7.9 200.8,12.2 200.8,17.3 C200.8,22.5 196.4,26.7 191,26.7 L191,26.7 Z M191,9.5 C186.3,9.5 184.5,13.9 184.5,17.3 C184.5,20.8 186.3,25.1 191,25.1 C195.7,25.1 197.5,20.8 197.5,17.3 C197.5,13.8 195.7,9.5 191,9.5 L191,9.5 Z" id="Shape"></path>
                <path d="M219.9,24.9 C222.7,24.9 224.8,23.3 224.8,19.8 L224.8,14.1 C224.8,10.1 224.3,9.4 221.6,9.4 L221.6,8.6 L229.8,8.6 L229.8,9.4 C227.1,9.4 226.6,10 226.6,14.1 L226.6,19.5 C226.6,24.2 223.3,26.7 219.4,26.7 C215.5,26.7 212.2,24.2 212.2,19.5 L212.2,14.1 C212.2,10.1 211.7,9.4 209,9.4 L209,8.6 L218.2,8.6 L218.2,9.4 C215.5,9.4 215,10 215,14.1 L215,19.8 C215.1,23.3 217.1,24.9 219.9,24.9 L219.9,24.9 Z" id="Shape"></path>
                <path d="M244.3,26.7 C242.2,26.7 240.5,25.7 239.8,25.2 C239.6,25.5 239.2,26 239,26.7 L238.3,26.7 L238.3,19.8 L239.1,19.8 C239.4,23.2 241.6,25.2 244.6,25.2 C246.3,25.2 247.7,24.2 247.7,22.5 C247.7,21.1 246.6,20 244.4,18.9 L241.7,17.5 C239.8,16.5 238.4,14.8 238.4,12.6 C238.4,10.1 240.5,8 243.4,8 C245.1,8 246.4,8.6 247.2,9.2 C247.4,9 247.7,8.6 247.8,8 L248.6,8 L248.6,14.8 L247.8,14.8 C247.6,12.4 246.5,9.5 243.6,9.5 C242,9.5 240.7,10.3 240.7,11.8 C240.7,13.2 241.7,14 244.2,15.3 L246.9,16.7 C249.2,17.9 250,19.7 250,21.2 C250,24.5 247.4,26.7 244.3,26.7 L244.3,26.7 Z" id="Shape"></path>
                <path d="M272.9,22 L273.1,21.2 L273.9,21.2 L273.6,26.1 L258.6,26.1 L258.6,25.3 C261.3,25.3 261.8,24.6 261.8,20.6 L261.8,14.2 C261.8,10.2 261.3,9.5 258.6,9.5 L258.6,8.7 L267.5,8.7 L272.7,8.7 L273,13.5 L272.2,13.5 L272,12.7 C271.6,10.8 271,10.1 267.4,10.1 L264.7,10.1 L264.7,16.1 L264.9,16.1 C268.9,16.1 269.2,15.6 269.2,12.9 L270,12.9 L270,20.7 L269.2,20.7 C269.2,18 268.9,17.5 264.9,17.5 L264.7,17.5 L264.7,19.8 C264.7,23.8 265.2,24.5 267.9,24.5 L268.4,24.5 C271.9,24.6 272.4,23.9 272.9,22 L272.9,22 Z" id="Shape"></path>
            </g>
            <g id="Group" transform="translate(2.000000, 201.000000)" fill="#4F87A0">
                <path d="M7.8,18.7 C7.8,22.7 8.3,23.4 11.6,23.4 L11.6,24.2 L0.7,24.2 L0.7,23.4 C4,23.4 4.5,22.7 4.5,18.7 L4.5,5.6 C4.5,1.6 4,0.9 0.7,0.9 L0.7,0.1 L11.6,0.1 L11.6,0.9 C8.3,0.9 7.8,1.5 7.8,5.6 L7.8,10.7 L21.5,10.7 L21.5,5.6 C21.5,1.6 21,0.9 17.6,0.9 L17.6,0.1 L28.5,0.1 L28.5,0.9 C25.1,0.9 24.6,1.5 24.6,5.6 L24.6,18.7 C24.6,22.7 25.1,23.4 28.5,23.4 L28.5,24.2 L17.6,24.2 L17.6,23.4 C20.9,23.4 21.5,22.7 21.5,18.7 L21.5,12.2 L7.8,12.2 L7.8,18.7 L7.8,18.7 Z" id="Shape"></path>
                <path d="M47,25 C41.6,25 37.2,20.8 37.2,15.6 C37.2,10.5 41.6,6.2 47,6.2 C52.4,6.2 56.8,10.5 56.8,15.6 C56.8,20.7 52.4,25 47,25 L47,25 Z M47,7.7 C42.3,7.7 40.5,12.1 40.5,15.5 C40.5,19 42.3,23.3 47,23.3 C51.7,23.3 53.5,19 53.5,15.5 C53.5,12.1 51.7,7.7 47,7.7 L47,7.7 Z" id="Shape"></path>
                <path d="M65.8,7.6 L65.8,6.8 L70.7,6.8 L81.4,19.5 L81.4,12.3 C81.4,8.3 80.9,7.6 78.2,7.6 L78.2,6.8 L86,6.8 L86,7.6 C83.3,7.6 82.8,8.2 82.8,12.3 L82.8,24.9 L82,24.9 L70.3,10.9 L70.3,18.8 C70.3,22.8 70.8,23.5 73.5,23.5 L73.5,24.3 L65.7,24.3 L65.7,23.5 C68.4,23.5 68.9,22.8 68.9,18.8 L68.9,12.4 C68.9,8.3 68.5,7.6 65.8,7.6 L65.8,7.6 Z" id="Shape"></path>
                <path d="M109,20.2 L109.2,19.4 L110,19.4 L109.7,24.3 L94.7,24.3 L94.7,23.5 C97.4,23.5 97.9,22.8 97.9,18.8 L97.9,12.4 C97.9,8.4 97.4,7.7 94.7,7.7 L94.7,6.9 L103.6,6.9 L108.8,6.9 L109.1,11.7 L108.3,11.7 L108.1,10.9 C107.7,9 107.1,8.3 103.5,8.3 L100.8,8.3 L100.8,14.3 L101,14.3 C105,14.3 105.3,13.8 105.3,11.1 L106.1,11.1 L106.1,18.9 L105.3,18.9 C105.3,16.2 105,15.7 101,15.7 L100.8,15.7 L100.8,18 C100.8,22 101.3,22.7 104,22.7 L104.5,22.7 C108,22.8 108.5,22.1 109,20.2 L109,20.2 Z" id="Shape"></path>
                <path d="M128.1,18.8 C128.1,22.8 128.6,23.5 131.3,23.5 L131.3,24.3 L122,24.3 L122,23.5 C124.7,23.5 125.2,22.8 125.2,18.8 L125.2,17.2 L121.2,11.3 C119.3,8.5 118.6,7.8 116.5,7.8 L116.5,7 L125.4,7 L125.4,7.8 C122.9,7.8 122.6,8.5 124.2,10.9 L127.3,15.5 L130.4,10.9 C132,8.4 132,7.8 129.3,7.8 L129.3,7 L136.9,7 L136.9,7.8 C134.7,7.8 133.8,8.7 132,11.3 L128,17.2 L128,18.8 L128.1,18.8 Z" id="Shape"></path>
                <path d="M149.5,10.7 L151.5,10.7 C155.5,10.7 156.2,10.2 156.2,6.8 L157,6.8 L157,16 L156.2,16 C156.2,12.6 155.6,12.1 151.5,12.1 L149.5,12.1 L149.5,18.6 C149.5,22.6 150,23.3 153.3,23.3 L153.3,24.1 L142.4,24.1 L142.4,23.3 C145.7,23.3 146.2,22.6 146.2,18.6 L146.2,5.5 C146.2,1.5 145.7,0.8 142.4,0.8 L142.4,0 L161.4,0 L161.7,5.3 L161,5.3 L160.8,4.5 C160.3,2.4 159.8,1.5 156.2,1.5 L149.6,1.5 L149.6,10.7 L149.5,10.7 Z" id="Shape"></path>
                <path d="M172.9,20.4 C171.9,22.8 171.9,23.5 175.1,23.5 L175.1,24.3 L167.5,24.3 L167.5,23.5 C170,23.5 170.4,23 171.6,20 L177.5,6.2 L178.1,6.2 L184,20 C185.3,23 185.8,23.5 187.9,23.5 L187.9,24.3 L178.9,24.3 L178.9,23.5 C181.8,23.5 182.1,22.8 181.1,20.4 L180.3,18.5 L173.7,18.5 L172.9,20.4 L172.9,20.4 Z M177,10.9 L174.3,17.1 L179.6,17.1 L177,10.9 L177,10.9 Z" id="Shape"></path>
                <path d="M207.1,19.7 C208.7,21.6 210.6,23.2 212.5,23.4 L212.5,24.2 L207.3,24.2 L201.8,16.7 L200.7,16.7 L200.7,18.7 C200.7,22.7 201.2,23.4 203.9,23.4 L203.9,24.2 L194.7,24.2 L194.7,23.4 C197.4,23.4 197.9,22.7 197.9,18.7 L197.9,12.3 C197.9,8.3 197.4,7.6 194.7,7.6 L194.7,6.8 L203,6.8 C207.1,6.8 209.4,8.9 209.4,11.8 C209.4,14.3 207.5,16.3 204.5,16.7 L207.1,19.7 L207.1,19.7 Z M203.1,8.3 L200.8,8.3 L200.8,15.3 L203.1,15.3 C205.4,15.3 206.4,13.7 206.4,11.8 C206.4,9.9 205.3,8.3 203.1,8.3 L203.1,8.3 Z" id="Shape"></path>
                <path d="M223.7,18.8 C223.7,22.8 224.2,23.5 226.9,23.5 L226.9,24.3 L219.1,24.3 L219.1,23.5 C221.8,23.5 222.3,22.8 222.3,18.8 L222.3,12.4 C222.3,8.4 221.8,7.7 219.1,7.7 L219.1,6.9 L225.1,6.9 L231.1,20.3 L237.1,6.9 L242.7,6.9 L242.7,7.7 C240,7.7 239.5,8.3 239.5,12.4 L239.5,18.8 C239.5,22.8 240,23.5 242.7,23.5 L242.7,24.3 L233.5,24.3 L233.5,23.5 C236.2,23.5 236.7,22.8 236.7,18.8 L236.7,11.3 L230.6,25 L230,25 L223.7,10.8 L223.7,18.8 L223.7,18.8 Z" id="Shape"></path>
                <path d="M257.8,25 C255.7,25 254,24 253.3,23.5 C253.1,23.8 252.7,24.3 252.5,25 L251.8,25 L251.8,18 L252.6,18 C252.9,21.4 255.1,23.4 258.1,23.4 C259.8,23.4 261.2,22.4 261.2,20.7 C261.2,19.3 260.1,18.2 257.9,17.1 L255.2,15.7 C253.3,14.7 251.9,13 251.9,10.8 C251.9,8.3 254,6.2 256.9,6.2 C258.6,6.2 259.9,6.8 260.7,7.4 C260.9,7.2 261.2,6.8 261.3,6.2 L262.1,6.2 L262.1,13 L261.3,13 C261.1,10.6 260,7.7 257.1,7.7 C255.5,7.7 254.2,8.5 254.2,10 C254.2,11.4 255.2,12.2 257.7,13.5 L260.4,14.9 C262.7,16.1 263.5,17.9 263.5,19.4 C263.5,22.7 260.9,25 257.8,25 L257.8,25 Z" id="Shape"></path>
            </g>
        </g>
    </g>
</svg>